<?xml version="1.0" encoding="UTF-8"?>
<svg version="1.1" xmlns="http://www.w3.org/2000/svg" width="800" height="199">
<path d="M0 0 C264 0 528 0 800 0 C800 65.67 800 131.34 800 199 C536 199 272 199 0 199 C0 133.33 0 67.66 0 0 Z " fill="#010101" transform="translate(0,0)"/>
<path d="M0 0 C2.66584941 3.29024674 4.55727927 6.83583064 6.42910767 10.61097717 C6.92804584 11.6052319 6.92804584 11.6052319 7.43706357 12.61957258 C8.54860402 14.83702599 9.65441168 17.05728797 10.76025391 19.27758789 C11.5567556 20.86951817 12.35360366 22.46127519 13.15077209 24.0528717 C15.31335235 28.37318584 17.47092547 32.69598289 19.62750673 37.01929402 C21.88392092 41.54090464 24.14455143 46.06040644 26.40463257 50.58018494 C30.19859126 58.16903878 33.98944844 65.75943538 37.77832031 73.35083008 C42.16172356 82.13337092 46.54931167 90.91381058 50.93930304 99.69305998 C55.15988397 108.13361197 59.37817936 116.57530386 63.59519577 125.01763725 C65.39120125 128.61318281 67.18788861 132.20838643 68.98509598 135.80333138 C71.09970479 140.03355192 73.21227485 144.26478446 75.32325554 148.49681664 C76.0993964 150.05202438 76.87621835 151.60689242 77.65376091 153.16139984 C78.7126472 155.27868326 79.76907383 157.3971757 80.82485962 159.51600647 C81.13506723 160.13487309 81.44527484 160.75373971 81.76488268 161.39135987 C83.01679897 163.90949209 84.10886715 166.32660145 85 169 C41.11 169 -2.78 169 -48 169 C-47.03764105 165.15056418 -45.74569882 162.2479087 -43.97265625 158.71484375 C-43.66792892 158.10548477 -43.3632016 157.49612579 -43.04924011 156.86830139 C-42.05784729 154.88923376 -41.06041214 152.91328732 -40.0625 150.9375 C-39.3790956 149.57754238 -38.69582797 148.21751602 -38.01269531 146.85742188 C-33.13226211 137.15955404 -28.15337016 127.5162292 -23.02050781 117.94921875 C-21.64323992 115.31857117 -20.32794379 112.65588758 -19 110 C-11.74 110 -4.48 110 3 110 C1.39893947 114.80318158 -0.42044755 119.10563992 -2.6953125 123.5859375 C-3.00782959 124.20895752 -3.32034668 124.83197754 -3.64233398 125.47387695 C-4.79881888 127.77646839 -5.96231269 130.07553422 -7.125 132.375 C-9.72375 137.53125 -12.3225 142.6875 -15 148 C7.44 148 29.88 148 53 148 C44.66619332 130.48594592 44.66619332 130.48594592 36.06549072 113.1116333 C34.04013044 109.09769106 32.0268878 105.07765927 30.01171875 101.05859375 C29.58105103 100.1998616 29.1503833 99.34112946 28.70666504 98.45637512 C27.36649584 95.78364076 26.02685152 93.1106442 24.6875 90.4375 C24.22700256 89.51844879 23.76650513 88.59939758 23.29205322 87.65249634 C17.44889951 75.98332464 11.64625036 64.30207993 6.1081543 52.48413086 C5.72957275 51.67854736 5.35099121 50.87296387 4.9609375 50.04296875 C4.64946777 49.37289795 4.33799805 48.70282715 4.01708984 48.01245117 C2.79677833 45.59789817 1.41332614 43.30586089 0 41 C-0.45213867 41.88445801 -0.90427734 42.76891602 -1.37011719 43.68017578 C-16.55576284 73.36550206 -16.55576284 73.36550206 -24.61035156 87.95166016 C-28.52938563 95.07244086 -32.27794712 102.27457055 -36 109.5 C-40.73918971 118.69842182 -45.58609071 127.82356917 -50.57739258 136.88745117 C-54.9296577 144.81151966 -59.11255582 152.81968885 -63.25634766 160.85449219 C-63.97056885 162.23556152 -63.97056885 162.23556152 -64.69921875 163.64453125 C-65.12033936 164.46284424 -65.54145996 165.28115723 -65.9753418 166.12426758 C-67 168 -67 168 -68 169 C-69.56172745 169.08685603 -71.12729344 169.10702219 -72.69140625 169.09765625 C-73.63564453 169.09443359 -74.57988281 169.09121094 -75.55273438 169.08789062 C-76.54595703 169.07951172 -77.53917969 169.07113281 -78.5625 169.0625 C-79.55958984 169.05798828 -80.55667969 169.05347656 -81.58398438 169.04882812 C-84.05604849 169.03700007 -86.52799518 169.02051849 -89 169 C-87.541921 165.17705236 -85.82224407 161.57604152 -83.9453125 157.94140625 C-83.64805771 157.36503922 -83.35080292 156.78867218 -83.04454041 156.19483948 C-82.07408961 154.31596643 -81.0997963 152.43912177 -80.125 150.5625 C-79.78886688 149.91351746 -79.45273376 149.26453491 -79.10641479 148.59588623 C-74.39807504 139.50827599 -69.57641586 130.49284854 -64.63134766 121.53149414 C-59.90806056 112.92752426 -55.43583983 104.1995307 -50.95724487 95.46673584 C-46.78409295 87.33409423 -42.55099646 79.24893774 -38.125 71.25 C-32.88160361 61.76819153 -27.93213013 52.14590477 -23 42.5 C-5.43070753 8.1460613 -5.43070753 8.1460613 0 0 Z " fill="#FAFAFA" transform="translate(561,17)"/>
<path d="M0 0 C6.93 0 13.86 0 21 0 C19.31238331 4.21904173 17.41853806 8.15582352 15.2890625 12.15234375 C14.92494766 12.84023483 14.56083282 13.52812592 14.1856842 14.23686218 C13.00150183 16.47185913 11.81343663 18.70476269 10.625 20.9375 C9.80178004 22.48808708 8.97861961 24.03870578 8.15551758 25.58935547 C1.85751512 37.44151467 -4.54814988 49.23069099 -11 61 C-15.29 68.92 -19.58 76.84 -24 85 C6.195 85.495 6.195 85.495 37 86 C37.66 84.02 38.32 82.04 39 80 C39.76077794 78.3668242 40.56093071 76.75143922 41.3984375 75.15625 C41.87112061 74.25205322 42.34380371 73.34785645 42.83081055 72.41625977 C43.34039307 71.45389404 43.84997559 70.49152832 44.375 69.5 C44.9110083 68.480271 45.4470166 67.46054199 45.99926758 66.40991211 C49.96916829 58.8830733 54.02633914 51.40586703 58.12402344 43.94799805 C63.65280426 33.86362382 69.02032631 23.69370522 74.3894043 13.52368164 C75.09553965 12.18896447 75.80167569 10.85424765 76.5078125 9.51953125 C76.9929557 8.59759979 76.9929557 8.59759979 77.48789978 7.65704346 C78.8910242 5.00687673 80.33413653 2.4987952 82 0 C84.06298828 -0.34057617 84.06298828 -0.34057617 86.5703125 -0.29296875 C87.46621094 -0.28330078 88.36210938 -0.27363281 89.28515625 -0.26367188 C90.69087891 -0.2259668 90.69087891 -0.2259668 92.125 -0.1875 C93.06988281 -0.17396484 94.01476562 -0.16042969 94.98828125 -0.14648438 C97.32608779 -0.11106306 99.66276237 -0.06167271 102 0 C100.70431628 3.3582842 99.26584742 6.55519335 97.6015625 9.74609375 C97.12887939 10.65351318 96.65619629 11.56093262 96.16918945 12.49584961 C95.65960693 13.46659424 95.15002441 14.43733887 94.625 15.4375 C94.0889917 16.46174072 93.5529834 17.48598145 93.00073242 18.54125977 C89.02995586 26.10229224 84.96462468 33.60782736 80.85400391 41.09350586 C76.32671307 49.35577532 71.90933515 57.67443831 67.5 66 C62.26270524 75.88736767 56.98179926 85.74624871 51.59765625 95.5546875 C47.15790604 103.66414995 42.82770812 111.8304197 38.5 120 C32.16355378 131.96103653 25.74369718 143.87213285 19.23535156 155.74072266 C16.46234547 160.81214526 13.73289318 165.9068809 11 171 C4.07 171 -2.86 171 -10 171 C-3.03742179 156.79634045 4.44970291 142.89852626 12 129 C12.57991699 127.93088379 13.15983398 126.86176758 13.75732422 125.76025391 C15.39881855 122.73496624 17.04247038 119.71086658 18.6875 116.6875 C19.18024414 115.78112793 19.67298828 114.87475586 20.18066406 113.94091797 C20.87047363 112.67658936 20.87047363 112.67658936 21.57421875 111.38671875 C21.97213623 110.65670654 22.37005371 109.92669434 22.7800293 109.17456055 C24.13755459 106.75481314 25.57251278 104.37914536 27 102 C6.87 102.33 -13.26 102.66 -34 103 C-36.03542969 107.08246094 -38.07085937 111.16492188 -40.16796875 115.37109375 C-41.46657355 117.97341928 -42.76529844 120.5756835 -44.06445312 123.17773438 C-46.12169209 127.2981654 -48.17850856 131.41880318 -50.23266602 135.54077148 C-51.89076761 138.86792509 -53.55088246 142.19406725 -55.21233559 145.51954842 C-55.84249405 146.78169786 -56.47195427 148.04419621 -57.10066795 149.30706596 C-57.98862259 151.09034752 -58.87940529 152.87222 -59.77026367 154.65405273 C-60.2743425 155.664431 -60.77842133 156.67480927 -61.29777527 157.71580505 C-63.44425543 161.85712621 -65.73469993 165.92245987 -68 170 C-75.26 170 -82.52 170 -90 170 C-81.3254595 152.48410091 -72.31866879 135.156562 -62.91186523 118.02246094 C-58.29943222 109.59828801 -53.79950194 101.11639134 -49.3125 92.625 C-48.93054474 91.90224884 -48.54858948 91.17949768 -48.15505981 90.43484497 C-46.59737396 87.48698878 -45.03994001 84.53899973 -43.4828949 81.59080505 C-39.43645333 73.93003543 -35.37702837 66.27618644 -31.3125 58.625 C-30.96386902 57.9686557 -30.61523804 57.3123114 -30.25604248 56.63607788 C-23.3947141 43.72135081 -16.48947409 30.83035907 -9.57714844 17.94287109 C-6.37469546 11.9672723 -3.18704017 5.98383053 0 0 Z " fill="#FAFAFA" transform="translate(441,15)"/>
<path d="M0 0 C48.18 0 96.36 0 146 0 C144.45300753 3.86748118 142.83535088 7.32960017 140.875 10.98046875 C140.25560547 12.13611328 139.63621094 13.29175781 138.99804688 14.48242188 C138.33221929 15.7175493 137.66619985 16.95257332 137 18.1875 C136.31830317 19.4550479 135.6366629 20.72262622 134.95507812 21.99023438 C127.52631058 35.78888499 119.98561243 49.51436311 112 63 C109.64583257 59.98638205 107.64720254 56.88260445 105.75 53.5625 C105.20859375 52.63566406 104.6671875 51.70882812 104.109375 50.75390625 C103 48 103 48 104 43 C108.29 34.42 112.58 25.84 117 17 C88.62 17 60.24 17 31 17 C41.46687475 36.4385101 41.46687475 36.4385101 51.9375 55.875 C56.78193977 64.8690595 61.61406146 73.86966091 66.4375 82.875 C67.05713623 84.03177246 67.67677246 85.18854492 68.31518555 86.38037109 C71.18561823 91.74034711 74.05465028 97.10106063 76.91944885 102.46405029 C77.89056021 104.28163011 78.86233772 106.09885248 79.83422852 107.91601562 C81.09887783 110.28061984 82.36057267 112.64672607 83.62084961 115.01367188 C86.48675776 120.38118753 89.38734782 125.71789026 92.421875 130.9921875 C92.94426758 131.90806641 93.46666016 132.82394531 94.00488281 133.76757812 C94.96905819 135.44905968 95.94665156 137.12295211 96.94042969 138.78710938 C98.79799414 142.03678285 99.97525041 144.23573253 100.09765625 148.015625 C98.56865538 152.17276615 96.36324431 155.68466547 93.9375 159.375 C93.46505859 160.11105469 92.99261719 160.84710938 92.50585938 161.60546875 C91.34617537 163.40942165 90.17429493 165.2055239 89 167 C86.3822657 163.73431167 84.46368275 160.29349292 82.515625 156.59375 C82.18318787 155.96496948 81.85075073 155.33618896 81.50823975 154.68835449 C80.79241126 153.33355166 80.07812624 151.9779324 79.36523438 150.62158203 C78.23627093 148.47388232 77.10314465 146.32842921 75.96875 144.18359375 C74.79980908 141.97342064 73.6310649 139.76314699 72.46350098 137.55224609 C68.66360289 130.35677016 64.83972596 123.17429328 61 116 C60.37955811 114.84016602 59.75911621 113.68033203 59.11987305 112.48535156 C55.49577284 105.73052509 51.79122922 99.03071866 47.99145508 92.37353516 C45.57511119 88.1087254 43.34865832 83.77401173 41.1875 79.375 C38.15408008 73.20243977 34.94052667 67.15054636 31.625 61.125 C25.425139 49.85520674 19.40945889 38.49126276 13.40673828 27.11572266 C13.03933533 26.4197699 12.67193237 25.72381714 12.293396 25.0067749 C11.57071348 23.63747959 10.84857558 22.26789668 10.12701416 20.89801025 C8.40669249 17.63736934 6.67151618 14.38646289 4.90087891 11.15283203 C4.57255569 10.55156998 4.24423248 9.95030792 3.90596008 9.33082581 C3.01615827 7.7056487 2.1211766 6.08331065 1.22583008 4.46118164 C0 2 0 2 0 0 Z " fill="#FAFAFA" transform="translate(240,15)"/>
<path d="M0 0 C3.11864767 2.66347106 4.77900272 6.02311594 6.6328125 9.60546875 C6.98161469 10.26839432 7.33041687 10.93131989 7.68978882 11.61433411 C8.83991022 13.80278021 9.98234626 15.99514696 11.125 18.1875 C11.93363216 19.72883719 12.74288619 21.26984826 13.55273438 22.81054688 C15.22240403 25.98771159 16.88975534 29.16607669 18.55566406 32.34521484 C21.83338065 38.59415814 25.14709576 44.82384287 28.46322632 51.05245972 C30.20999055 54.33369048 31.95484396 57.61593594 33.69921875 60.8984375 C34.04799576 61.55474655 34.39677277 62.2110556 34.75611877 62.88725281 C37.39256035 67.85084793 40.01998738 72.81916778 42.64453125 77.7890625 C44.20032903 80.73447637 45.75630777 83.67979453 47.3125 86.625 C47.69386108 87.3468045 48.07522217 88.06860901 48.46813965 88.81228638 C53.00134052 97.38815159 57.57580237 105.93737331 62.25 114.4375 C66.71761429 122.56650751 71.04489938 130.76458297 75.3125 139 C75.87549805 140.08595459 76.43849609 141.17190918 77.01855469 142.29077148 C81.08268433 150.16098128 85.03800222 158.07600443 89 166 C40.49 166 -8.02 166 -58 166 C-56.51839948 162.29599869 -54.98931338 158.90374176 -53.1640625 155.37890625 C-52.31811523 153.74405273 -52.31811523 153.74405273 -51.45507812 152.07617188 C-50.54918945 150.3369043 -50.54918945 150.3369043 -49.625 148.5625 C-49.3158667 147.96751709 -49.0067334 147.37253418 -48.68823242 146.75952148 C-43.06502374 135.94031157 -37.28073386 125.2136654 -31.39453125 114.53515625 C-28.91665647 110.03056037 -26.45913255 105.51484719 -24 101 C-20.73895731 104.10054789 -18.542971 107.56802971 -16.1875 111.375 C-15.75501953 112.035 -15.32253906 112.695 -14.87695312 113.375 C-14.47798828 114.02210938 -14.07902344 114.66921875 -13.66796875 115.3359375 C-13.29953857 115.91907715 -12.9311084 116.5022168 -12.55151367 117.10302734 C-12 119 -12 119 -14 124 C-18.29 131.59 -22.58 139.18 -27 147 C1.71 147 30.42 147 60 147 C54.72 137.43 49.44 127.86 44 118 C36.3125 103.6875 36.3125 103.6875 32.5859375 96.70703125 C28.70341821 89.43539182 24.77903981 82.18685114 20.84521484 74.94287109 C18.04897525 69.79118266 15.26475794 64.63350685 12.5 59.46484375 C11.91162354 58.3663208 11.32324707 57.26779785 10.71704102 56.13598633 C9.54129294 53.94014896 8.36726927 51.74338729 7.19506836 49.5456543 C4.35677878 44.2547493 1.45488696 39.0240521 -1.62109375 33.8671875 C-2.19013428 32.90707764 -2.7591748 31.94696777 -3.34545898 30.95776367 C-4.42125877 29.15650941 -5.51247602 27.3643436 -6.62133789 25.58325195 C-10.11856297 19.72215628 -10.11856297 19.72215628 -9.5703125 16.3828125 C-9.05210937 15.59648438 -8.53390625 14.81015625 -8 14 C-7.34665941 12.81910566 -6.6986468 11.63525491 -6.0546875 10.44921875 C-5.33143975 9.19339765 -4.60480784 7.93952016 -3.875 6.6875 C-3.50246094 6.04232422 -3.12992188 5.39714844 -2.74609375 4.73242188 C-1.83367787 3.15324055 -0.91724491 1.57638136 0 0 Z " fill="#FBFBFB" transform="translate(219,18)"/>
</svg>
