999
"DXF R12 Output" (www.mydxf.blogspot.com)
 0 
SECTION
 2 
HEADER
 9 
$ACADVER
 1 
AC1009
 9 
$EXTMIN
 10 
 0 
 20 
 0 
 9 
$EXTMAX
 10 
 8.5 
 20 
 11 
 0 
ENDSEC
 0 
SECTION
 2 
ENTITIES
0
LINE
8
Layer 1
10
0.000000
20
52.652100
11
211.666400
21
52.652100
0
LINE
8
Layer 1
10
211.666400
20
52.652100
11
211.666400
21
0.000083
0
LINE
8
Layer 1
10
211.666400
20
0.000083
11
0.000000
21
0.000083
0
LINE
8
Layer 1
10
0.000000
20
0.000083
11
0.000000
21
52.652100
0
LINE
8
Layer 1
10
0.000000
20
52.652100
11
0.000000
21
52.652100
0
LINE
8
Layer 1
10
148.431000
20
48.154200
11
149.360298
21
46.798569
0
LINE
8
Layer 1
10
149.360298
20
46.798569
11
150.132033
21
45.346716
0
LINE
8
Layer 1
10
150.132033
20
45.346716
11
150.398721
21
44.815276
0
LINE
8
Layer 1
10
150.398721
20
44.815276
11
151.277980
21
43.053678
0
LINE
8
Layer 1
10
151.277980
20
43.053678
11
151.910471
21
41.790219
0
LINE
8
Layer 1
10
151.910471
20
41.790219
11
153.624105
21
38.359524
0
LINE
8
Layer 1
10
153.624105
20
38.359524
11
155.417217
21
34.771543
0
LINE
8
Layer 1
10
155.417217
20
34.771543
11
158.426501
21
28.746817
0
LINE
8
Layer 1
10
158.426501
20
28.746817
11
161.908674
21
21.777111
0
LINE
8
Layer 1
10
161.908674
20
21.777111
11
165.257208
21
15.076658
0
LINE
8
Layer 1
10
165.257208
20
15.076658
11
166.683284
21
12.222947
0
LINE
8
Layer 1
10
166.683284
20
12.222947
11
168.360253
21
8.864467
0
LINE
8
Layer 1
10
168.360253
20
8.864467
11
168.976865
21
7.630297
0
LINE
8
Layer 1
10
168.976865
20
7.630297
11
169.815884
21
5.948976
0
LINE
8
Layer 1
10
169.815884
20
5.948976
11
170.064598
21
5.452790
0
LINE
8
Layer 1
10
170.064598
20
5.452790
11
170.920555
21
3.439673
0
LINE
8
Layer 1
10
170.920555
20
3.439673
11
135.731016
21
3.439673
0
LINE
8
Layer 1
10
135.731016
20
3.439673
11
136.183364
21
4.831702
0
LINE
8
Layer 1
10
136.183364
20
4.831702
11
136.796583
21
6.160950
0
LINE
8
Layer 1
10
136.796583
20
6.160950
11
137.040903
21
6.649514
0
LINE
8
Layer 1
10
137.040903
20
6.649514
11
137.831144
21
8.218703
0
LINE
8
Layer 1
10
137.831144
20
8.218703
11
138.373487
21
9.298223
0
LINE
8
Layer 1
10
138.373487
20
9.298223
11
142.340165
21
16.946842
0
LINE
8
Layer 1
10
142.340165
20
16.946842
11
143.403923
21
19.050070
0
LINE
8
Layer 1
10
143.403923
20
19.050070
11
149.224749
21
19.050070
0
LINE
8
Layer 1
10
149.224749
20
19.050070
11
148.538162
21
17.220730
0
LINE
8
Layer 1
10
148.538162
20
17.220730
11
147.717866
21
15.455462
0
LINE
8
Layer 1
10
147.717866
20
15.455462
11
147.467300
21
14.955945
0
LINE
8
Layer 1
10
147.467300
20
14.955945
11
146.545846
21
13.130025
0
LINE
8
Layer 1
10
146.545846
20
13.130025
11
144.462255
21
8.995916
0
LINE
8
Layer 1
10
144.462255
20
8.995916
11
162.453899
21
8.995916
0
LINE
8
Layer 1
10
162.453899
20
8.995916
11
157.973316
21
18.226785
0
LINE
8
Layer 1
10
157.973316
20
18.226785
11
156.371591
21
21.415814
0
LINE
8
Layer 1
10
156.371591
20
21.415814
11
156.026296
21
22.104317
0
LINE
8
Layer 1
10
156.026296
20
22.104317
11
154.962893
21
24.225975
0
LINE
8
Layer 1
10
154.962893
20
24.225975
11
154.593681
21
24.962840
0
LINE
8
Layer 1
10
154.593681
20
24.962840
11
150.047114
21
34.267791
0
LINE
8
Layer 1
10
150.047114
20
34.267791
11
149.743580
21
34.913681
0
LINE
8
Layer 1
10
149.743580
20
34.913681
11
149.493854
21
35.450922
0
LINE
8
Layer 1
10
149.493854
20
35.450922
11
148.431000
21
37.306297
0
LINE
8
Layer 1
10
148.431000
20
37.306297
11
148.068490
21
36.597168
0
LINE
8
Layer 1
10
148.068490
20
36.597168
11
141.919519
21
24.883686
0
LINE
8
Layer 1
10
141.919519
20
24.883686
11
138.906012
21
19.182362
0
LINE
8
Layer 1
10
138.906012
20
19.182362
11
135.049082
21
11.936108
0
LINE
8
Layer 1
10
135.049082
20
11.936108
11
131.694446
21
5.594836
0
LINE
8
Layer 1
10
131.694446
20
5.594836
11
131.312687
21
4.856639
0
LINE
8
Layer 1
10
131.312687
20
4.856639
11
130.975046
21
4.200543
0
LINE
8
Layer 1
10
130.975046
20
4.200543
11
130.439356
21
3.439673
0
LINE
8
Layer 1
10
130.439356
20
3.439673
11
129.198090
21
3.413835
0
LINE
8
Layer 1
10
129.198090
20
3.413835
11
128.441031
21
3.416419
0
LINE
8
Layer 1
10
128.441031
20
3.416419
11
127.644698
21
3.423137
0
LINE
8
Layer 1
10
127.644698
20
3.423137
11
126.845265
21
3.426754
0
LINE
8
Layer 1
10
126.845265
20
3.426754
11
124.883113
21
3.439673
0
LINE
8
Layer 1
10
124.883113
20
3.439673
11
126.220497
21
6.365589
0
LINE
8
Layer 1
10
126.220497
20
6.365589
11
126.458826
21
6.827701
0
LINE
8
Layer 1
10
126.458826
20
6.827701
11
127.231287
21
8.317922
0
LINE
8
Layer 1
10
127.231287
20
8.317922
11
127.500787
21
8.838255
0
LINE
8
Layer 1
10
127.500787
20
8.838255
11
131.330644
21
15.999033
0
LINE
8
Layer 1
10
131.330644
20
15.999033
11
134.948579
21
22.895325
0
LINE
8
Layer 1
10
134.948579
20
22.895325
11
138.343773
21
29.302661
0
LINE
8
Layer 1
10
138.343773
20
29.302661
11
142.345591
21
36.909423
0
LINE
8
Layer 1
10
142.345591
20
36.909423
11
146.592669
21
45.132121
0
LINE
8
Layer 1
10
146.592669
20
45.132121
11
148.431000
21
48.154200
0
LINE
8
Layer 1
10
148.431000
20
48.154200
11
148.431000
21
48.154200
0
LINE
8
Layer 1
10
116.681000
20
48.683300
11
122.237243
21
48.683300
0
LINE
8
Layer 1
10
122.237243
20
48.683300
11
120.726226
21
45.467996
0
LINE
8
Layer 1
10
120.726226
20
45.467996
11
120.434291
21
44.916468
0
LINE
8
Layer 1
10
120.434291
20
44.916468
11
119.492194
21
43.143593
0
LINE
8
Layer 1
10
119.492194
20
43.143593
11
118.838811
21
41.912792
0
LINE
8
Layer 1
10
118.838811
20
41.912792
11
113.770587
21
32.543737
0
LINE
8
Layer 1
10
113.770587
20
32.543737
11
110.331008
21
26.193745
0
LINE
8
Layer 1
10
110.331008
20
26.193745
11
126.470571
21
25.929162
0
LINE
8
Layer 1
10
126.470571
20
25.929162
11
126.999737
21
27.516660
0
LINE
8
Layer 1
10
126.999737
20
27.516660
11
127.634323
21
28.798234
0
LINE
8
Layer 1
10
127.634323
20
28.798234
11
128.013304
21
29.523189
0
LINE
8
Layer 1
10
128.013304
20
29.523189
11
128.421871
21
30.294782
0
LINE
8
Layer 1
10
128.421871
20
30.294782
11
128.851624
21
31.112366
0
LINE
8
Layer 1
10
128.851624
20
31.112366
11
132.059628
21
37.055407
0
LINE
8
Layer 1
10
132.059628
20
37.055407
11
136.363172
21
45.105164
0
LINE
8
Layer 1
10
136.363172
20
45.105164
11
136.923667
21
46.164594
0
LINE
8
Layer 1
10
136.923667
20
46.164594
11
137.182981
21
46.657376
0
LINE
8
Layer 1
10
137.182981
20
46.657376
11
138.376806
21
48.683300
0
LINE
8
Layer 1
10
138.376806
20
48.683300
11
139.586033
21
48.760815
0
LINE
8
Layer 1
10
139.586033
20
48.760815
11
140.304334
21
48.753063
0
LINE
8
Layer 1
10
140.304334
20
48.753063
11
141.055709
21
48.732909
0
LINE
8
Layer 1
10
141.055709
20
48.732909
11
141.813284
21
48.722057
0
LINE
8
Layer 1
10
141.813284
20
48.722057
11
143.668466
21
48.683300
0
LINE
8
Layer 1
10
143.668466
20
48.683300
11
142.504714
21
46.104649
0
LINE
8
Layer 1
10
142.504714
20
46.104649
11
142.125733
21
45.377111
0
LINE
8
Layer 1
10
142.125733
20
45.377111
11
141.717166
21
44.598800
0
LINE
8
Layer 1
10
141.717166
20
44.598800
11
141.287413
21
43.777598
0
LINE
8
Layer 1
10
141.287413
20
43.777598
11
138.073595
21
37.810657
0
LINE
8
Layer 1
10
138.073595
20
37.810657
11
134.540352
21
31.220822
0
LINE
8
Layer 1
10
134.540352
20
31.220822
11
130.332863
21
23.401154
0
LINE
8
Layer 1
10
130.332863
20
23.401154
11
126.867446
21
16.933340
0
LINE
8
Layer 1
10
126.867446
20
16.933340
11
121.770347
21
7.476952
0
LINE
8
Layer 1
10
121.770347
20
7.476952
11
119.591413
21
3.439607
0
LINE
8
Layer 1
10
119.591413
20
3.439607
11
114.035170
21
3.439607
0
LINE
8
Layer 1
10
114.035170
20
3.439607
11
116.887270
21
9.026125
0
LINE
8
Layer 1
10
116.887270
20
9.026125
11
119.855996
21
14.552093
0
LINE
8
Layer 1
10
119.855996
20
14.552093
11
120.320954
21
15.409275
0
LINE
8
Layer 1
10
120.320954
20
15.409275
11
121.625395
21
17.809771
0
LINE
8
Layer 1
10
121.625395
20
17.809771
11
122.020461
21
18.536470
0
LINE
8
Layer 1
10
122.020461
20
18.536470
11
122.389172
21
19.212268
0
LINE
8
Layer 1
10
122.389172
20
19.212268
11
122.708208
21
19.797567
0
LINE
8
Layer 1
10
122.708208
20
19.797567
11
123.824741
21
21.695834
0
LINE
8
Layer 1
10
123.824741
20
21.695834
11
107.685178
21
21.431251
0
LINE
8
Layer 1
10
107.685178
20
21.431251
11
106.053238
21
18.158070
0
LINE
8
Layer 1
10
106.053238
20
18.158070
11
105.022295
21
16.092566
0
LINE
8
Layer 1
10
105.022295
20
16.092566
11
103.390291
21
12.821516
0
LINE
8
Layer 1
10
103.390291
20
12.821516
11
102.072755
21
10.181301
0
LINE
8
Layer 1
10
102.072755
20
10.181301
11
101.573134
21
9.179189
0
LINE
8
Layer 1
10
101.573134
20
9.179189
11
100.866804
21
7.764467
0
LINE
8
Layer 1
10
100.866804
20
7.764467
11
100.462651
21
6.954379
0
LINE
8
Layer 1
10
100.462651
20
6.954379
11
98.689356
21
3.704190
0
LINE
8
Layer 1
10
98.689356
20
3.704190
11
92.868530
21
3.704190
0
LINE
8
Layer 1
10
92.868530
20
3.704190
11
96.379406
21
10.618258
0
LINE
8
Layer 1
10
96.379406
20
10.618258
11
100.035590
21
17.456563
0
LINE
8
Layer 1
10
100.035590
20
17.456563
11
103.633751
21
24.176300
0
LINE
8
Layer 1
10
103.633751
20
24.176300
11
103.939990
21
24.755777
0
LINE
8
Layer 1
10
103.939990
20
24.755777
11
105.176165
21
27.095760
0
LINE
8
Layer 1
10
105.176165
20
27.095760
11
108.396245
21
33.172122
0
LINE
8
Layer 1
10
108.396245
20
33.172122
11
108.675766
21
33.698357
0
LINE
8
Layer 1
10
108.675766
20
33.698357
11
114.147049
21
43.935921
0
LINE
8
Layer 1
10
114.147049
20
43.935921
11
116.681000
21
48.683300
0
LINE
8
Layer 1
10
116.681000
20
48.683300
11
116.681000
21
48.683300
0
LINE
8
Layer 1
10
63.500000
20
48.683300
11
102.129118
21
48.683300
0
LINE
8
Layer 1
10
102.129118
20
48.683300
11
100.773130
21
45.778055
0
LINE
8
Layer 1
10
100.773130
20
45.778055
11
100.276520
21
44.851497
0
LINE
8
Layer 1
10
100.276520
20
44.851497
11
99.747871
21
43.871197
0
LINE
8
Layer 1
10
99.747871
20
43.871197
11
99.206819
21
42.865058
0
LINE
8
Layer 1
10
99.206819
20
42.865058
11
96.225307
21
37.408758
0
LINE
8
Layer 1
10
96.225307
20
37.408758
11
93.133296
21
32.014571
0
LINE
8
Layer 1
10
93.133296
20
32.014571
11
91.479652
21
34.511573
0
LINE
8
Layer 1
10
91.479652
20
34.511573
11
91.045571
21
35.254679
0
LINE
8
Layer 1
10
91.045571
20
35.254679
11
90.821812
21
36.057601
0
LINE
8
Layer 1
10
90.821812
20
36.057601
11
91.016632
21
37.306231
0
LINE
8
Layer 1
10
91.016632
20
37.306231
11
94.456211
21
44.185389
0
LINE
8
Layer 1
10
94.456211
20
44.185389
11
71.702073
21
44.185389
0
LINE
8
Layer 1
10
71.702073
20
44.185389
11
77.241780
21
33.899725
0
LINE
8
Layer 1
10
77.241780
20
33.899725
11
81.078233
21
26.755984
0
LINE
8
Layer 1
10
81.078233
20
26.755984
11
81.575037
21
25.828522
0
LINE
8
Layer 1
10
81.575037
20
25.828522
11
83.851579
21
21.573054
0
LINE
8
Layer 1
10
83.851579
20
21.573054
11
84.622780
21
20.130557
0
LINE
8
Layer 1
10
84.622780
20
20.130557
11
85.624655
21
18.252638
0
LINE
8
Layer 1
10
85.624655
20
18.252638
11
87.953257
21
14.024994
0
LINE
8
Layer 1
10
87.953257
20
14.024994
11
88.372094
21
13.290673
0
LINE
8
Layer 1
10
88.372094
20
13.290673
11
89.148790
21
11.962590
0
LINE
8
Layer 1
10
89.148790
20
11.962590
11
89.738624
21
10.794344
0
LINE
8
Layer 1
10
89.738624
20
10.794344
11
89.984138
21
9.520882
0
LINE
8
Layer 1
10
89.984138
20
9.520882
11
89.258176
21
7.971817
0
LINE
8
Layer 1
10
89.258176
20
7.971817
11
88.354266
21
6.515384
0
LINE
8
Layer 1
10
88.354266
20
6.515384
11
87.975478
21
5.925240
0
LINE
8
Layer 1
10
87.975478
20
5.925240
11
87.047887
21
4.497939
0
LINE
8
Layer 1
10
87.047887
20
4.497939
11
86.123615
21
5.831531
0
LINE
8
Layer 1
10
86.123615
20
5.831531
11
85.332232
21
7.251256
0
LINE
8
Layer 1
10
85.332232
20
7.251256
11
85.065695
21
7.755391
0
LINE
8
Layer 1
10
85.065695
20
7.755391
11
84.498692
21
8.831390
0
LINE
8
Layer 1
10
84.498692
20
8.831390
11
83.600040
21
10.534772
0
LINE
8
Layer 1
10
83.600040
20
10.534772
11
82.672610
21
12.289314
0
LINE
8
Layer 1
10
82.672610
20
12.289314
11
79.639563
21
17.991672
0
LINE
8
Layer 1
10
79.639563
20
17.991672
11
79.142113
21
18.921588
0
LINE
8
Layer 1
10
79.142113
20
18.921588
11
76.197723
21
24.242833
0
LINE
8
Layer 1
10
76.197723
20
24.242833
11
74.397512
21
27.682024
0
LINE
8
Layer 1
10
74.397512
20
27.682024
11
71.867437
21
32.510664
0
LINE
8
Layer 1
10
71.867437
20
32.510664
11
67.047195
21
41.508941
0
LINE
8
Layer 1
10
67.047195
20
41.508941
11
66.752624
21
42.066932
0
LINE
8
Layer 1
10
66.752624
20
42.066932
11
66.179436
21
43.154042
0
LINE
8
Layer 1
10
66.179436
20
43.154042
11
64.796689
21
45.732450
0
LINE
8
Layer 1
10
64.796689
20
45.732450
11
64.533451
21
46.214522
0
LINE
8
Layer 1
10
64.533451
20
46.214522
11
63.824334
21
47.502947
0
LINE
8
Layer 1
10
63.824334
20
47.502947
11
63.540542
21
48.138881
0
LINE
8
Layer 1
10
63.540542
20
48.138881
11
63.500000
21
48.683300
0
LINE
8
Layer 1
10
63.500000
20
48.683300
11
63.500000
21
48.683300
0
LINE
8
Layer 1
10
57.943800
20
47.889600
11
58.946760
21
46.710048
0
LINE
8
Layer 1
10
58.946760
20
46.710048
11
59.698729
21
45.348156
0
LINE
8
Layer 1
10
59.698729
20
45.348156
11
59.978387
21
44.816645
0
LINE
8
Layer 1
10
59.978387
20
44.816645
11
60.887286
21
43.077497
0
LINE
8
Layer 1
10
60.887286
20
43.077497
11
61.529623
21
41.854317
0
LINE
8
Layer 1
10
61.529623
20
41.854317
11
62.853313
21
39.331606
0
LINE
8
Layer 1
10
62.853313
20
39.331606
11
65.474686
21
34.381987
0
LINE
8
Layer 1
10
65.474686
20
34.381987
11
66.860040
21
31.776909
0
LINE
8
Layer 1
10
66.860040
20
31.776909
11
67.139678
21
31.250702
0
LINE
8
Layer 1
10
67.139678
20
31.250702
11
69.226818
21
27.307936
0
LINE
8
Layer 1
10
69.226818
20
27.307936
11
70.461883
21
24.970098
0
LINE
8
Layer 1
10
70.461883
20
24.970098
11
70.767646
21
24.391379
0
LINE
8
Layer 1
10
70.767646
20
24.391379
11
74.414092
21
17.611383
0
LINE
8
Layer 1
10
74.414092
20
17.611383
11
77.870207
21
11.112563
0
LINE
8
Layer 1
10
77.870207
20
11.112563
11
78.321600
21
10.241881
0
LINE
8
Layer 1
10
78.321600
20
10.241881
11
81.491687
21
3.968822
0
LINE
8
Layer 1
10
81.491687
20
3.968822
11
42.597986
21
3.968822
0
LINE
8
Layer 1
10
42.597986
20
3.968822
11
43.877493
21
6.778983
0
LINE
8
Layer 1
10
43.877493
20
6.778983
11
44.329661
21
7.652830
0
LINE
8
Layer 1
10
44.329661
20
7.652830
11
44.813869
21
8.582488
0
LINE
8
Layer 1
10
44.813869
20
8.582488
11
45.061721
21
9.059526
0
LINE
8
Layer 1
10
45.061721
20
9.059526
11
49.637341
21
17.585545
0
LINE
8
Layer 1
10
49.637341
20
17.585545
11
51.593808
21
21.166717
0
LINE
8
Layer 1
10
51.593808
20
21.166717
11
52.717185
21
19.864283
0
LINE
8
Layer 1
10
52.717185
20
19.864283
11
53.660863
21
18.421668
0
LINE
8
Layer 1
10
53.660863
20
18.421668
11
54.007611
21
17.892502
0
LINE
8
Layer 1
10
54.007611
20
17.892502
11
54.327488
21
17.373672
0
LINE
8
Layer 1
10
54.327488
20
17.373672
11
54.622883
21
16.906130
0
LINE
8
Layer 1
10
54.622883
20
16.906130
11
54.684418
21
16.301597
0
LINE
8
Layer 1
10
54.684418
20
16.301597
11
54.239638
21
15.081308
0
LINE
8
Layer 1
10
54.239638
20
15.081308
11
50.800059
21
8.995899
0
LINE
8
Layer 1
10
50.800059
20
8.995899
11
73.818780
21
8.995899
0
LINE
8
Layer 1
10
73.818780
20
8.995899
11
69.585452
21
16.668806
0
LINE
8
Layer 1
10
69.585452
20
16.668806
11
66.565485
21
22.302564
0
LINE
8
Layer 1
10
66.565485
20
22.302564
11
63.459089
21
28.060990
0
LINE
8
Layer 1
10
63.459089
20
28.060990
11
61.251088
21
32.156213
0
LINE
8
Layer 1
10
61.251088
20
32.156213
11
60.779347
21
33.036972
0
LINE
8
Layer 1
10
60.779347
20
33.036972
11
59.847493
21
34.780662
0
LINE
8
Layer 1
10
59.847493
20
34.780662
11
57.514886
21
38.928918
0
LINE
8
Layer 1
10
57.514886
20
38.928918
11
57.058648
21
39.698702
0
LINE
8
Layer 1
10
57.058648
20
39.698702
11
56.191907
21
41.120706
0
LINE
8
Layer 1
10
56.191907
20
41.120706
11
55.400396
21
42.588051
0
LINE
8
Layer 1
10
55.400396
20
42.588051
11
55.342254
21
43.019963
0
LINE
8
Layer 1
10
55.342254
20
43.019963
11
55.411658
21
43.554986
0
LINE
8
Layer 1
10
55.411658
20
43.554986
11
55.827136
21
44.185438
0
LINE
8
Layer 1
10
55.827136
20
44.185438
11
56.341833
21
45.124914
0
LINE
8
Layer 1
10
56.341833
20
45.124914
11
56.918541
21
46.120201
0
LINE
8
Layer 1
10
56.918541
20
46.120201
11
57.217230
21
46.637482
0
LINE
8
Layer 1
10
57.217230
20
46.637482
11
57.943800
21
47.889600
0
LINE
8
Layer 1
10
57.943800
20
47.889600
11
57.943800
21
47.889600
 0 
ENDSEC
 0 
EOF