999
"DXF R12 Output" (www.mydxf.blogspot.com)
 0 
SECTION
 2 
HEADER
 9 
$ACADVER
 1 
AC1009
 9 
$EXTMIN
 10 
 0 
 20 
 0 
 9 
$EXTMAX
 10 
 8.5 
 20 
 11 
 0 
ENDSEC
 0 
SECTION
 2 
ENTITIES
0
LINE
8
Layer 1
10
161.385420
20
113.766050
11
160.067670
21
115.755590
0
LINE
8
Layer 1
10
160.067670
20
115.755590
11
159.984188
21
118.616331
0
LINE
8
Layer 1
10
159.984188
20
118.616331
11
159.740151
21
121.257663
0
LINE
8
Layer 1
10
159.740151
20
121.257663
11
159.345172
21
123.692112
0
LINE
8
Layer 1
10
159.345172
20
123.692112
11
158.808865
21
125.932207
0
LINE
8
Layer 1
10
158.808865
20
125.932207
11
158.140844
21
127.990476
0
LINE
8
Layer 1
10
158.140844
20
127.990476
11
157.350723
21
129.879446
0
LINE
8
Layer 1
10
157.350723
20
129.879446
11
156.448114
21
131.611647
0
LINE
8
Layer 1
10
156.448114
20
131.611647
11
155.442632
21
133.199605
0
LINE
8
Layer 1
10
155.442632
20
133.199605
11
153.161503
21
135.992907
0
LINE
8
Layer 1
10
153.161503
20
135.992907
11
150.584243
21
138.359576
0
LINE
8
Layer 1
10
150.584243
20
138.359576
11
147.787763
21
140.399835
0
LINE
8
Layer 1
10
147.787763
20
140.399835
11
144.848970
21
142.213910
0
LINE
8
Layer 1
10
144.848970
20
142.213910
11
146.809845
21
142.754896
0
LINE
8
Layer 1
10
146.809845
20
142.754896
11
148.579358
21
143.538117
0
LINE
8
Layer 1
10
148.579358
20
143.538117
11
149.335579
21
144.099292
0
LINE
8
Layer 1
10
149.335579
20
144.099292
11
149.975831
21
144.815495
0
LINE
8
Layer 1
10
149.975831
20
144.815495
11
150.477405
21
145.718218
0
LINE
8
Layer 1
10
150.477405
20
145.718218
11
150.817590
21
146.838950
0
LINE
8
Layer 1
10
150.817590
20
146.838950
11
152.374342
21
147.363282
0
LINE
8
Layer 1
10
152.374342
20
147.363282
11
153.606502
21
147.942724
0
LINE
8
Layer 1
10
153.606502
20
147.942724
11
154.560094
21
148.569401
0
LINE
8
Layer 1
10
154.560094
20
148.569401
11
155.281142
21
149.235441
0
LINE
8
Layer 1
10
155.281142
20
149.235441
11
156.209704
21
150.654121
0
LINE
8
Layer 1
10
156.209704
20
150.654121
11
156.760380
21
152.135780
0
LINE
8
Layer 1
10
156.760380
20
152.135780
11
158.038968
21
152.893160
0
LINE
8
Layer 1
10
158.038968
20
152.893160
11
159.567056
21
154.202834
0
LINE
8
Layer 1
10
159.567056
20
154.202834
11
160.269482
21
155.085976
0
LINE
8
Layer 1
10
160.269482
20
155.085976
11
160.848066
21
156.132625
0
LINE
8
Layer 1
10
160.848066
20
156.132625
11
161.240736
21
157.351261
0
LINE
8
Layer 1
10
161.240736
20
157.351261
11
161.385420
21
158.750360
0
LINE
8
Layer 1
10
161.385420
20
158.750360
11
162.731428
21
159.864229
0
LINE
8
Layer 1
10
162.731428
20
159.864229
11
163.704398
21
161.227598
0
LINE
8
Layer 1
10
163.704398
20
161.227598
11
164.013143
21
162.002087
0
LINE
8
Layer 1
10
164.013143
20
162.002087
11
164.183211
21
162.838043
0
LINE
8
Layer 1
10
164.183211
20
162.838043
11
164.199459
21
163.735163
0
LINE
8
Layer 1
10
164.199459
20
163.735163
11
164.046750
21
164.693143
0
LINE
8
Layer 1
10
164.046750
20
164.693143
11
165.287794
21
166.573277
0
LINE
8
Layer 1
10
165.287794
20
166.573277
11
166.029836
21
168.262046
0
LINE
8
Layer 1
10
166.029836
20
168.262046
11
166.277722
21
169.820008
0
LINE
8
Layer 1
10
166.277722
20
169.820008
11
166.036297
21
171.307723
0
LINE
8
Layer 1
10
166.036297
20
171.307723
11
166.848281
21
172.488762
0
LINE
8
Layer 1
10
166.848281
20
172.488762
11
167.343546
21
173.561704
0
LINE
8
Layer 1
10
167.343546
20
173.561704
11
167.575988
21
174.541992
0
LINE
8
Layer 1
10
167.575988
20
174.541992
11
167.599505
21
175.445068
0
LINE
8
Layer 1
10
167.599505
20
175.445068
11
167.235347
21
177.081354
0
LINE
8
Layer 1
10
167.235347
20
177.081354
11
166.682250
21
178.594100
0
LINE
8
Layer 1
10
166.682250
20
178.594100
11
167.243120
21
180.076112
0
LINE
8
Layer 1
10
167.243120
20
180.076112
11
167.438824
21
181.502108
0
LINE
8
Layer 1
10
167.438824
20
181.502108
11
167.277235
21
182.818494
0
LINE
8
Layer 1
10
167.277235
20
182.818494
11
166.766224
21
183.971675
0
LINE
8
Layer 1
10
166.766224
20
183.971675
11
165.913664
21
184.908058
0
LINE
8
Layer 1
10
165.913664
20
184.908058
11
164.727429
21
185.574047
0
LINE
8
Layer 1
10
164.727429
20
185.574047
11
163.215390
21
185.916049
0
LINE
8
Layer 1
10
163.215390
20
185.916049
11
161.385420
21
185.880470
0
LINE
8
Layer 1
10
161.385420
20
185.880470
11
160.508334
21
186.943268
0
LINE
8
Layer 1
10
160.508334
20
186.943268
11
159.412027
21
187.687530
0
LINE
8
Layer 1
10
159.412027
20
187.687530
11
158.189758
21
188.167758
0
LINE
8
Layer 1
10
158.189758
20
188.167758
11
156.934787
21
188.438454
0
LINE
8
Layer 1
10
156.934787
20
188.438454
11
154.699782
21
188.569261
0
LINE
8
Layer 1
10
154.699782
20
188.569261
11
153.453090
21
188.515970
0
LINE
8
Layer 1
10
153.453090
20
188.515970
11
152.818036
21
189.372265
0
LINE
8
Layer 1
10
152.818036
20
189.372265
11
151.802676
21
189.920923
0
LINE
8
Layer 1
10
151.802676
20
189.920923
11
150.288315
21
190.096542
0
LINE
8
Layer 1
10
150.288315
20
190.096542
11
148.156260
21
189.833720
0
LINE
8
Layer 1
10
148.156260
20
189.833720
11
145.791257
21
190.963333
0
LINE
8
Layer 1
10
145.791257
20
190.963333
11
144.683544
21
191.268042
0
LINE
8
Layer 1
10
144.683544
20
191.268042
11
143.615195
21
191.409849
0
LINE
8
Layer 1
10
143.615195
20
191.409849
11
142.578336
21
191.396627
0
LINE
8
Layer 1
10
142.578336
20
191.396627
11
141.565095
21
191.236248
0
LINE
8
Layer 1
10
141.565095
20
191.236248
11
139.577977
21
190.505510
0
LINE
8
Layer 1
10
139.577977
20
190.505510
11
138.396938
21
191.288681
0
LINE
8
Layer 1
10
138.396938
20
191.288681
11
137.323996
21
191.708199
0
LINE
8
Layer 1
10
137.323996
20
191.708199
11
136.343708
21
191.834008
0
LINE
8
Layer 1
10
136.343708
20
191.834008
11
135.440632
21
191.736055
0
LINE
8
Layer 1
10
135.440632
20
191.736055
11
133.804346
21
191.148639
0
LINE
8
Layer 1
10
133.804346
20
191.148639
11
132.291600
21
190.505510
0
LINE
8
Layer 1
10
132.291600
20
190.505510
11
130.946551
21
190.853721
0
LINE
8
Layer 1
10
130.946551
20
190.853721
11
129.859177
21
190.946375
0
LINE
8
Layer 1
10
129.859177
20
190.946375
11
128.974672
21
190.837977
0
LINE
8
Layer 1
10
128.974672
20
190.837977
11
128.238233
21
190.583026
0
LINE
8
Layer 1
10
128.238233
20
190.583026
11
126.990327
21
189.851481
0
LINE
8
Layer 1
10
126.990327
20
189.851481
11
125.677020
21
189.187760
0
LINE
8
Layer 1
10
125.677020
20
189.187760
11
124.303105
21
189.311654
0
LINE
8
Layer 1
10
124.303105
20
189.311654
11
123.139629
21
189.219656
0
LINE
8
Layer 1
10
123.139629
20
189.219656
11
122.147534
21
188.942955
0
LINE
8
Layer 1
10
122.147534
20
188.942955
11
121.287758
21
188.512739
0
LINE
8
Layer 1
10
121.287758
20
188.512739
11
119.808924
21
187.316510
0
LINE
8
Layer 1
10
119.808924
20
187.316510
11
118.390650
21
185.880470
0
LINE
8
Layer 1
10
118.390650
20
185.880470
11
116.426947
21
185.880470
0
LINE
8
Layer 1
10
116.426947
20
185.880470
11
114.312150
21
184.440394
0
LINE
8
Layer 1
10
114.312150
20
184.440394
11
112.438980
21
182.673303
0
LINE
8
Layer 1
10
112.438980
20
182.673303
11
110.799566
21
180.688202
0
LINE
8
Layer 1
10
110.799566
20
180.688202
11
109.386035
21
178.594097
0
LINE
8
Layer 1
10
109.386035
20
178.594097
11
108.190513
21
176.499991
0
LINE
8
Layer 1
10
108.190513
20
176.499991
11
107.205128
21
174.514890
0
LINE
8
Layer 1
10
107.205128
20
174.514890
11
105.833280
21
171.307723
0
LINE
8
Layer 1
10
105.833280
20
171.307723
11
104.552270
21
174.798305
0
LINE
8
Layer 1
10
104.552270
20
174.798305
11
103.646369
21
176.795214
0
LINE
8
Layer 1
10
103.646369
20
176.795214
11
102.522761
21
178.846020
0
LINE
8
Layer 1
10
102.522761
20
178.846020
11
101.150864
21
180.865336
0
LINE
8
Layer 1
10
101.150864
20
180.865336
11
99.500097
21
182.767774
0
LINE
8
Layer 1
10
99.500097
20
182.767774
11
97.539876
21
184.467948
0
LINE
8
Layer 1
10
97.539876
20
184.467948
11
95.239620
21
185.880470
0
LINE
8
Layer 1
10
95.239620
20
185.880470
11
93.275917
21
185.880470
0
LINE
8
Layer 1
10
93.275917
20
185.880470
11
91.857639
21
187.316510
0
LINE
8
Layer 1
10
91.857639
20
187.316510
11
90.378806
21
188.512739
0
LINE
8
Layer 1
10
90.378806
20
188.512739
11
89.519030
21
188.942955
0
LINE
8
Layer 1
10
89.519030
20
188.942955
11
88.526934
21
189.219656
0
LINE
8
Layer 1
10
88.526934
20
189.219656
11
87.363457
21
189.311654
0
LINE
8
Layer 1
10
87.363457
20
189.311654
11
85.989540
21
189.187760
0
LINE
8
Layer 1
10
85.989540
20
189.187760
11
84.676234
21
189.851481
0
LINE
8
Layer 1
10
84.676234
20
189.851481
11
83.428330
21
190.583026
0
LINE
8
Layer 1
10
83.428330
20
190.583026
11
82.691891
21
190.837977
0
LINE
8
Layer 1
10
82.691891
20
190.837977
11
81.807386
21
190.946375
0
LINE
8
Layer 1
10
81.807386
20
190.946375
11
80.720011
21
190.853721
0
LINE
8
Layer 1
10
80.720011
20
190.853721
11
79.374960
21
190.505510
0
LINE
8
Layer 1
10
79.374960
20
190.505510
11
77.314364
21
191.406618
0
LINE
8
Layer 1
10
77.314364
20
191.406618
11
76.126614
21
191.708199
0
LINE
8
Layer 1
10
76.126614
20
191.708199
11
74.749920
21
191.823260
0
LINE
8
Layer 1
10
74.749920
20
191.823260
11
74.239618
21
191.708199
0
LINE
8
Layer 1
10
74.239618
20
191.708199
11
73.671179
21
191.406618
0
LINE
8
Layer 1
10
73.671179
20
191.406618
11
72.088590
21
190.505510
0
LINE
8
Layer 1
10
72.088590
20
190.505510
11
70.122059
21
191.236248
0
LINE
8
Layer 1
10
70.122059
20
191.236248
11
68.216087
21
191.409849
0
LINE
8
Layer 1
10
68.216087
20
191.409849
11
67.304735
21
191.268042
0
LINE
8
Layer 1
10
67.304735
20
191.268042
11
66.431232
21
190.963333
0
LINE
8
Layer 1
10
66.431232
20
190.963333
11
65.603147
21
190.487850
0
LINE
8
Layer 1
10
65.603147
20
190.487850
11
64.828050
21
189.833720
0
LINE
8
Layer 1
10
64.828050
20
189.833720
11
63.678452
21
189.997529
0
LINE
8
Layer 1
10
63.678452
20
189.997529
11
62.699629
21
190.005703
0
LINE
8
Layer 1
10
62.699629
20
190.005703
11
61.191325
21
189.678687
0
LINE
8
Layer 1
10
61.191325
20
189.678687
11
60.177176
21
189.099750
0
LINE
8
Layer 1
10
60.177176
20
189.099750
11
59.531220
21
188.515970
0
LINE
8
Layer 1
10
59.531220
20
188.515970
11
58.288162
21
188.569261
0
LINE
8
Layer 1
10
58.288162
20
188.569261
11
56.059214
21
188.438454
0
LINE
8
Layer 1
10
56.059214
20
188.438454
11
54.805909
21
188.167758
0
LINE
8
Layer 1
10
54.805909
20
188.167758
11
53.583186
21
187.687530
0
LINE
8
Layer 1
10
53.583186
20
187.687530
11
52.483396
21
186.943268
0
LINE
8
Layer 1
10
52.483396
20
186.943268
11
51.598890
21
185.880470
0
LINE
8
Layer 1
10
51.598890
20
185.880470
11
49.548237
21
185.916049
0
LINE
8
Layer 1
10
49.548237
20
185.916049
11
47.872136
21
185.574047
0
LINE
8
Layer 1
10
47.872136
20
185.574047
11
46.569679
21
184.908058
0
LINE
8
Layer 1
10
46.569679
20
184.908058
11
45.639959
21
183.971675
0
LINE
8
Layer 1
10
45.639959
20
183.971675
11
45.082066
21
182.818494
0
LINE
8
Layer 1
10
45.082066
20
182.818494
11
44.895092
21
181.502108
0
LINE
8
Layer 1
10
44.895092
20
181.502108
11
45.078130
21
180.076112
0
LINE
8
Layer 1
10
45.078130
20
180.076112
11
45.630270
21
178.594100
0
LINE
8
Layer 1
10
45.630270
20
178.594100
11
44.808695
21
177.175826
0
LINE
8
Layer 1
10
44.808695
20
177.175826
11
44.568834
21
176.463509
0
LINE
8
Layer 1
10
44.568834
20
176.463509
11
44.483699
21
175.696992
0
LINE
8
Layer 1
10
44.483699
20
175.696992
11
44.583872
21
174.837215
0
LINE
8
Layer 1
10
44.583872
20
174.837215
11
44.899935
21
173.845118
0
LINE
8
Layer 1
10
44.899935
20
173.845118
11
46.302060
21
171.307723
0
LINE
8
Layer 1
10
46.302060
20
171.307723
11
45.900054
21
170.755635
0
LINE
8
Layer 1
10
45.900054
20
170.755635
11
45.682750
21
170.103020
0
LINE
8
Layer 1
10
45.682750
20
170.103020
11
45.650756
21
169.372889
0
LINE
8
Layer 1
10
45.650756
20
169.372889
11
45.804675
21
168.588255
0
LINE
8
Layer 1
10
45.804675
20
168.588255
11
46.145114
21
167.772132
0
LINE
8
Layer 1
10
46.145114
20
167.772132
11
46.672677
21
166.947529
0
LINE
8
Layer 1
10
46.672677
20
166.947529
11
47.387971
21
166.137461
0
LINE
8
Layer 1
10
47.387971
20
166.137461
11
48.291600
21
165.364940
0
LINE
8
Layer 1
10
48.291600
20
165.364940
11
48.049368
21
163.499339
0
LINE
8
Layer 1
10
48.049368
20
163.499339
11
48.135361
21
162.638453
0
LINE
8
Layer 1
10
48.135361
20
162.638453
11
48.369116
21
161.815415
0
LINE
8
Layer 1
10
48.369116
20
161.815415
11
48.757900
21
161.022657
0
LINE
8
Layer 1
10
48.757900
20
161.022657
11
49.308981
21
160.252608
0
LINE
8
Layer 1
10
49.308981
20
160.252608
11
50.927100
21
158.750360
0
LINE
8
Layer 1
10
50.927100
20
158.750360
11
50.885063
21
157.570634
0
LINE
8
Layer 1
10
50.885063
20
157.570634
11
51.181849
21
156.506878
0
LINE
8
Layer 1
10
51.181849
20
156.506878
11
51.725107
21
155.551520
0
LINE
8
Layer 1
10
51.725107
20
155.551520
11
52.422486
21
154.696993
0
LINE
8
Layer 1
10
52.422486
20
154.696993
11
53.910200
21
153.260146
0
LINE
8
Layer 1
10
53.910200
20
153.260146
11
54.906180
21
152.135780
0
LINE
8
Layer 1
10
54.906180
20
152.135780
11
55.456859
21
150.654121
0
LINE
8
Layer 1
10
55.456859
20
150.654121
11
56.385420
21
149.235441
0
LINE
8
Layer 1
10
56.385420
20
149.235441
11
57.106467
21
148.569401
0
LINE
8
Layer 1
10
57.106467
20
148.569401
11
58.060058
21
147.942724
0
LINE
8
Layer 1
10
58.060058
20
147.942724
11
59.292218
21
147.363282
0
LINE
8
Layer 1
10
59.292218
20
147.363282
11
60.848970
21
146.838950
0
LINE
8
Layer 1
10
60.848970
20
146.838950
11
61.189155
21
145.718218
0
LINE
8
Layer 1
10
61.189155
20
145.718218
11
61.690729
21
144.815495
0
LINE
8
Layer 1
10
61.690729
20
144.815495
11
62.330981
21
144.099292
0
LINE
8
Layer 1
10
62.330981
20
144.099292
11
63.087203
21
143.538117
0
LINE
8
Layer 1
10
63.087203
20
143.538117
11
64.856718
21
142.754896
0
LINE
8
Layer 1
10
64.856718
20
142.754896
11
66.817597
21
142.213910
0
LINE
8
Layer 1
10
66.817597
20
142.213910
11
63.693342
21
140.373341
0
LINE
8
Layer 1
10
63.693342
20
140.373341
11
60.809808
21
138.268738
0
LINE
8
Layer 1
10
60.809808
20
138.268738
11
58.221192
21
135.822587
0
LINE
8
Layer 1
10
58.221192
20
135.822587
11
55.981696
21
132.957372
0
LINE
8
Layer 1
10
55.981696
20
132.957372
11
55.009804
21
131.343393
0
LINE
8
Layer 1
10
55.009804
20
131.343393
11
54.145518
21
129.595580
0
LINE
8
Layer 1
10
54.145518
20
129.595580
11
53.395610
21
127.704244
0
LINE
8
Layer 1
10
53.395610
20
127.704244
11
52.766858
21
125.659695
0
LINE
8
Layer 1
10
52.766858
20
125.659695
11
52.266034
21
123.452245
0
LINE
8
Layer 1
10
52.266034
20
123.452245
11
51.899915
21
121.072203
0
LINE
8
Layer 1
10
51.899915
20
121.072203
11
51.675275
21
118.509882
0
LINE
8
Layer 1
10
51.675275
20
118.509882
11
51.598890
21
115.755590
0
LINE
8
Layer 1
10
51.598890
20
115.755590
11
50.281147
21
113.766050
0
LINE
8
Layer 1
10
50.281147
20
113.766050
11
48.554951
21
112.508197
0
LINE
8
Layer 1
10
48.554951
20
112.508197
11
46.875499
21
110.978702
0
LINE
8
Layer 1
10
46.875499
20
110.978702
11
45.273789
21
109.200843
0
LINE
8
Layer 1
10
45.273789
20
109.200843
11
43.780819
21
107.197896
0
LINE
8
Layer 1
10
43.780819
20
107.197896
11
42.427587
21
104.993139
0
LINE
8
Layer 1
10
42.427587
20
104.993139
11
41.245092
21
102.609849
0
LINE
8
Layer 1
10
41.245092
20
102.609849
11
40.264332
21
100.071302
0
LINE
8
Layer 1
10
40.264332
20
100.071302
11
39.516305
21
97.400776
0
LINE
8
Layer 1
10
39.516305
20
97.400776
11
39.032009
21
94.621548
0
LINE
8
Layer 1
10
39.032009
20
94.621548
11
38.842442
21
91.756895
0
LINE
8
Layer 1
10
38.842442
20
91.756895
11
38.978604
21
88.830095
0
LINE
8
Layer 1
10
38.978604
20
88.830095
11
39.471492
21
85.864423
0
LINE
8
Layer 1
10
39.471492
20
85.864423
11
40.352104
21
82.883158
0
LINE
8
Layer 1
10
40.352104
20
82.883158
11
41.651439
21
79.909576
0
LINE
8
Layer 1
10
41.651439
20
79.909576
11
43.400495
21
76.966954
0
LINE
8
Layer 1
10
43.400495
20
76.966954
11
45.630270
21
74.078570
0
LINE
8
Layer 1
10
45.630270
20
74.078570
11
46.245137
21
70.825781
0
LINE
8
Layer 1
10
46.245137
20
70.825781
11
47.041680
21
67.880629
0
LINE
8
Layer 1
10
47.041680
20
67.880629
11
48.937560
21
62.167153
0
LINE
8
Layer 1
10
48.937560
20
62.167153
11
49.429892
21
59.410830
0
LINE
8
Layer 1
10
49.429892
20
59.410830
11
50.141408
21
56.837923
0
LINE
8
Layer 1
10
50.141408
20
56.837923
11
51.043001
21
54.446540
0
LINE
8
Layer 1
10
51.043001
20
54.446540
11
52.105565
21
52.234787
0
LINE
8
Layer 1
10
52.105565
20
52.234787
11
53.299995
21
50.200773
0
LINE
8
Layer 1
10
53.299995
20
50.200773
11
54.597186
21
48.342605
0
LINE
8
Layer 1
10
54.597186
20
48.342605
11
55.968030
21
46.658391
0
LINE
8
Layer 1
10
55.968030
20
46.658391
11
57.383422
21
45.146238
0
LINE
8
Layer 1
10
57.383422
20
45.146238
11
60.231428
21
42.630546
0
LINE
8
Layer 1
10
60.231428
20
42.630546
11
62.908357
21
40.780390
0
LINE
8
Layer 1
10
62.908357
20
40.780390
11
65.181362
21
39.580629
0
LINE
8
Layer 1
10
65.181362
20
39.580629
11
66.817597
21
39.016123
0
LINE
8
Layer 1
10
66.817597
20
39.016123
11
70.432521
21
36.172307
0
LINE
8
Layer 1
10
70.432521
20
36.172307
11
74.420486
21
33.570723
0
LINE
8
Layer 1
10
74.420486
20
33.570723
11
78.902607
21
31.211372
0
LINE
8
Layer 1
10
78.902607
20
31.211372
11
84.000000
21
29.094253
0
LINE
8
Layer 1
10
84.000000
20
29.094253
11
86.510595
21
26.797681
0
LINE
8
Layer 1
10
86.510595
20
26.797681
11
89.075995
21
24.858404
0
LINE
8
Layer 1
10
89.075995
20
24.858404
11
91.688025
21
23.260675
0
LINE
8
Layer 1
10
91.688025
20
23.260675
11
94.338510
21
21.988749
0
LINE
8
Layer 1
10
94.338510
20
21.988749
11
97.019274
21
21.026882
0
LINE
8
Layer 1
10
97.019274
20
21.026882
11
99.722142
21
20.359329
0
LINE
8
Layer 1
10
99.722142
20
20.359329
11
102.438939
21
19.970343
0
LINE
8
Layer 1
10
102.438939
20
19.970343
11
105.161490
21
19.844180
0
LINE
8
Layer 1
10
105.161490
20
19.844180
11
107.892567
21
19.970343
0
LINE
8
Layer 1
10
107.892567
20
19.970343
11
110.615772
21
20.359329
0
LINE
8
Layer 1
10
110.615772
20
20.359329
11
113.323232
21
21.026882
0
LINE
8
Layer 1
10
113.323232
20
21.026882
11
116.007075
21
21.988749
0
LINE
8
Layer 1
10
116.007075
20
21.988749
11
118.659427
21
23.260675
0
LINE
8
Layer 1
10
118.659427
20
23.260675
11
121.272417
21
24.858404
0
LINE
8
Layer 1
10
121.272417
20
24.858404
11
123.838171
21
26.797681
0
LINE
8
Layer 1
10
123.838171
20
26.797681
11
126.348817
21
29.094253
0
LINE
8
Layer 1
10
126.348817
20
29.094253
11
131.446208
21
31.211372
0
LINE
8
Layer 1
10
131.446208
20
31.211372
11
135.928328
21
33.570723
0
LINE
8
Layer 1
10
135.928328
20
33.570723
11
139.916293
21
36.172307
0
LINE
8
Layer 1
10
139.916293
20
36.172307
11
143.531220
21
39.016123
0
LINE
8
Layer 1
10
143.531220
20
39.016123
11
145.167404
21
39.580629
0
LINE
8
Layer 1
10
145.167404
20
39.580629
11
147.440056
21
40.780390
0
LINE
8
Layer 1
10
147.440056
20
40.780390
11
150.116026
21
42.630546
0
LINE
8
Layer 1
10
150.116026
20
42.630546
11
152.962165
21
45.146238
0
LINE
8
Layer 1
10
152.962165
20
45.146238
11
154.376189
21
46.658391
0
LINE
8
Layer 1
10
154.376189
20
46.658391
11
155.745323
21
48.342605
0
LINE
8
Layer 1
10
155.745323
20
48.342605
11
157.040426
21
50.200773
0
LINE
8
Layer 1
10
157.040426
20
50.200773
11
158.232352
21
52.234787
0
LINE
8
Layer 1
10
158.232352
20
52.234787
11
159.291958
21
54.446540
0
LINE
8
Layer 1
10
159.291958
20
54.446540
11
160.190100
21
56.837923
0
LINE
8
Layer 1
10
160.190100
20
56.837923
11
160.897636
21
59.410830
0
LINE
8
Layer 1
10
160.897636
20
59.410830
11
161.385420
21
62.167153
0
LINE
8
Layer 1
10
161.385420
20
62.167153
11
163.384649
21
67.880629
0
LINE
8
Layer 1
10
163.384649
20
67.880629
11
165.364500
21
74.078570
0
LINE
8
Layer 1
10
165.364500
20
74.078570
11
167.826075
21
76.966954
0
LINE
8
Layer 1
10
167.826075
20
76.966954
11
169.777030
21
79.909576
0
LINE
8
Layer 1
10
169.777030
20
79.909576
11
171.249347
21
82.883158
0
LINE
8
Layer 1
10
171.249347
20
82.883158
11
172.275009
21
85.864423
0
LINE
8
Layer 1
10
172.275009
20
85.864423
11
172.885999
21
88.830095
0
LINE
8
Layer 1
10
172.885999
20
88.830095
11
173.114297
21
91.756895
0
LINE
8
Layer 1
10
173.114297
20
91.756895
11
172.991888
21
94.621548
0
LINE
8
Layer 1
10
172.991888
20
94.621548
11
172.550753
21
97.400776
0
LINE
8
Layer 1
10
172.550753
20
97.400776
11
171.822874
21
100.071302
0
LINE
8
Layer 1
10
171.822874
20
100.071302
11
170.840234
21
102.609849
0
LINE
8
Layer 1
10
170.840234
20
102.609849
11
169.634815
21
104.993139
0
LINE
8
Layer 1
10
169.634815
20
104.993139
11
168.238599
21
107.197896
0
LINE
8
Layer 1
10
168.238599
20
107.197896
11
166.683570
21
109.200843
0
LINE
8
Layer 1
10
166.683570
20
109.200843
11
165.001709
21
110.978702
0
LINE
8
Layer 1
10
165.001709
20
110.978702
11
163.224998
21
112.508197
0
LINE
8
Layer 1
10
163.224998
20
112.508197
11
161.385420
21
113.766050
0
LINE
8
Layer 1
10
161.385420
20
113.766050
11
161.385420
21
113.766050
0
LINE
8
Layer 1
10
152.807137
20
116.427380
11
152.655170
21
115.907993
0
LINE
8
Layer 1
10
152.655170
20
115.907993
11
152.333551
21
115.582403
0
LINE
8
Layer 1
10
152.333551
20
115.582403
11
151.854755
21
115.439111
0
LINE
8
Layer 1
10
151.854755
20
115.439111
11
151.231258
21
115.466623
0
LINE
8
Layer 1
10
151.231258
20
115.466623
11
149.600063
21
115.988067
0
LINE
8
Layer 1
10
149.600063
20
115.988067
11
147.539775
21
117.054764
0
LINE
8
Layer 1
10
147.539775
20
117.054764
11
145.150201
21
118.574739
0
LINE
8
Layer 1
10
145.150201
20
118.574739
11
142.531150
21
120.456020
0
LINE
8
Layer 1
10
142.531150
20
120.456020
11
137.003843
21
124.934609
0
LINE
8
Layer 1
10
137.003843
20
124.934609
11
131.756316
21
129.754746
0
LINE
8
Layer 1
10
131.756316
20
129.754746
11
127.587029
21
134.180649
0
LINE
8
Layer 1
10
127.587029
20
134.180649
11
126.156245
21
136.015831
0
LINE
8
Layer 1
10
126.156245
20
136.015831
11
125.294443
21
137.476535
0
LINE
8
Layer 1
10
125.294443
20
137.476535
11
125.108101
21
138.037717
0
LINE
8
Layer 1
10
125.108101
20
138.037717
11
125.101433
21
138.470789
0
LINE
8
Layer 1
10
125.101433
20
138.470789
11
125.286914
21
138.764256
0
LINE
8
Layer 1
10
125.286914
20
138.764256
11
125.677020
21
138.906620
0
LINE
8
Layer 1
10
125.677020
20
138.906620
11
128.496765
21
139.270158
0
LINE
8
Layer 1
10
128.496765
20
139.270158
11
131.238693
21
139.375643
0
LINE
8
Layer 1
10
131.238693
20
139.375643
11
133.887361
21
139.227842
0
LINE
8
Layer 1
10
133.887361
20
139.227842
11
136.427327
21
138.831526
0
LINE
8
Layer 1
10
136.427327
20
138.831526
11
138.843149
21
138.191462
0
LINE
8
Layer 1
10
138.843149
20
138.191462
11
141.119383
21
137.312421
0
LINE
8
Layer 1
10
141.119383
20
137.312421
11
143.240589
21
136.199170
0
LINE
8
Layer 1
10
143.240589
20
136.199170
11
145.191323
21
134.856479
0
LINE
8
Layer 1
10
145.191323
20
134.856479
11
146.956144
21
133.289117
0
LINE
8
Layer 1
10
146.956144
20
133.289117
11
148.519608
21
131.501852
0
LINE
8
Layer 1
10
148.519608
20
131.501852
11
149.866273
21
129.499454
0
LINE
8
Layer 1
10
149.866273
20
129.499454
11
150.980697
21
127.286692
0
LINE
8
Layer 1
10
150.980697
20
127.286692
11
151.847438
21
124.868335
0
LINE
8
Layer 1
10
151.847438
20
124.868335
11
152.451053
21
122.249151
0
LINE
8
Layer 1
10
152.451053
20
122.249151
11
152.776100
21
119.433910
0
LINE
8
Layer 1
10
152.776100
20
119.433910
11
152.807137
21
116.427380
0
LINE
8
Layer 1
10
152.807137
20
116.427380
11
152.807137
21
116.427380
0
LINE
8
Layer 1
10
117.744690
20
181.901390
11
117.845621
21
181.024505
0
LINE
8
Layer 1
10
117.845621
20
181.024505
11
118.067670
21
180.331719
0
LINE
8
Layer 1
10
118.067670
20
180.331719
11
118.390650
21
179.265890
0
LINE
8
Layer 1
10
118.390650
20
179.265890
11
121.039065
21
182.227596
0
LINE
8
Layer 1
10
121.039065
20
182.227596
11
123.687480
21
185.208680
0
LINE
8
Layer 1
10
123.687480
20
185.208680
11
123.529221
21
183.555035
0
LINE
8
Layer 1
10
123.529221
20
183.555035
11
123.698380
21
182.788771
0
LINE
8
Layer 1
10
123.698380
20
182.788771
11
124.359270
21
181.901390
0
LINE
8
Layer 1
10
124.359270
20
181.901390
11
125.368576
21
183.278081
0
LINE
8
Layer 1
10
125.368576
20
183.278081
11
126.503843
21
184.465831
0
LINE
8
Layer 1
10
126.503843
20
184.465831
11
127.891033
21
185.527621
0
LINE
8
Layer 1
10
127.891033
20
185.527621
11
129.656107
21
186.526430
0
LINE
8
Layer 1
10
129.656107
20
186.526430
11
129.271612
21
185.840656
0
LINE
8
Layer 1
10
129.271612
20
185.840656
11
129.099374
21
185.264796
0
LINE
8
Layer 1
10
129.099374
20
185.264796
11
129.099727
21
184.782802
0
LINE
8
Layer 1
10
129.099727
20
184.782802
11
129.233006
21
184.378626
0
LINE
8
Layer 1
10
129.233006
20
184.378626
11
129.739676
21
183.739535
0
LINE
8
Layer 1
10
129.739676
20
183.739535
11
130.302060
21
183.219140
0
LINE
8
Layer 1
10
130.302060
20
183.219140
11
133.115194
21
185.208678
0
LINE
8
Layer 1
10
133.115194
20
185.208678
11
134.767628
21
186.205871
0
LINE
8
Layer 1
10
134.767628
20
186.205871
11
136.916640
21
187.198220
0
LINE
8
Layer 1
10
136.916640
20
187.198220
11
135.847586
21
185.544575
0
LINE
8
Layer 1
10
135.847586
20
185.544575
11
135.713954
21
184.778311
0
LINE
8
Layer 1
10
135.713954
20
184.778311
11
135.886192
21
184.357330
0
LINE
8
Layer 1
10
135.886192
20
184.357330
11
136.270687
21
183.890930
0
LINE
8
Layer 1
10
136.270687
20
183.890930
11
137.688154
21
184.778311
0
LINE
8
Layer 1
10
137.688154
20
184.778311
11
139.238850
21
185.544575
0
LINE
8
Layer 1
10
139.238850
20
185.544575
11
141.288544
21
186.310839
0
LINE
8
Layer 1
10
141.288544
20
186.310839
11
144.203010
21
187.198220
0
LINE
8
Layer 1
10
144.203010
20
187.198220
11
143.514263
21
186.310839
0
LINE
8
Layer 1
10
143.514263
20
186.310839
11
142.704398
21
185.544575
0
LINE
8
Layer 1
10
142.704398
20
185.544575
11
142.146454
21
184.778311
0
LINE
8
Layer 1
10
142.146454
20
184.778311
11
142.078527
21
184.357330
0
LINE
8
Layer 1
10
142.078527
20
184.357330
11
142.213470
21
183.890930
0
LINE
8
Layer 1
10
142.213470
20
183.890930
11
149.499847
21
185.880470
0
LINE
8
Layer 1
10
149.499847
20
185.880470
11
147.830052
21
184.297881
0
LINE
8
Layer 1
10
147.830052
20
184.297881
11
147.621328
21
183.729442
0
LINE
8
Layer 1
10
147.621328
20
183.729442
11
147.780546
21
183.471263
0
LINE
8
Layer 1
10
147.780546
20
183.471263
11
148.156260
21
183.219140
0
LINE
8
Layer 1
10
148.156260
20
183.219140
11
150.158315
21
183.792827
0
LINE
8
Layer 1
10
150.158315
20
183.792827
11
152.216085
21
184.301112
0
LINE
8
Layer 1
10
152.216085
20
184.301112
11
154.394973
21
184.436359
0
LINE
8
Layer 1
10
154.394973
20
184.436359
11
155.550274
21
184.267956
0
LINE
8
Layer 1
10
155.550274
20
184.267956
11
156.760380
21
183.890930
0
LINE
8
Layer 1
10
156.760380
20
183.890930
11
154.770840
21
181.901390
0
LINE
8
Layer 1
10
154.770840
20
181.901390
11
162.729007
21
181.901390
0
LINE
8
Layer 1
10
162.729007
20
181.901390
11
160.813749
21
179.172230
0
LINE
8
Layer 1
10
160.813749
20
179.172230
11
160.022050
21
177.719233
0
LINE
8
Layer 1
10
160.022050
20
177.719233
11
159.421717
21
175.958600
0
LINE
8
Layer 1
10
159.421717
20
175.958600
11
162.729007
21
175.958600
0
LINE
8
Layer 1
10
162.729007
20
175.958600
11
162.170962
21
174.613753
0
LINE
8
Layer 1
10
162.170962
20
174.613753
11
161.529952
21
173.532636
0
LINE
8
Layer 1
10
161.529952
20
173.532636
11
160.151645
21
171.976289
0
LINE
8
Layer 1
10
160.151645
20
171.976289
11
158.899299
21
170.918942
0
LINE
8
Layer 1
10
158.899299
20
170.918942
11
158.078130
21
169.989980
0
LINE
8
Layer 1
10
158.078130
20
169.989980
11
158.703494
21
169.626627
0
LINE
8
Layer 1
10
158.703494
20
169.626627
11
159.573514
21
169.505510
0
LINE
8
Layer 1
10
159.573514
20
169.505510
11
160.690612
21
169.626627
0
LINE
8
Layer 1
10
160.690612
20
169.626627
11
162.057210
21
169.989980
0
LINE
8
Layer 1
10
162.057210
20
169.989980
11
160.953434
21
168.229347
0
LINE
8
Layer 1
10
160.953434
20
168.229347
11
159.660716
21
166.776350
0
LINE
8
Layer 1
10
159.660716
20
166.776350
11
156.760380
21
164.047190
0
LINE
8
Layer 1
10
156.760380
20
164.047190
11
157.280776
21
163.669308
0
LINE
8
Layer 1
10
157.280776
20
163.669308
11
157.919869
21
163.543348
0
LINE
8
Layer 1
10
157.919869
20
163.543348
11
158.806039
21
163.669308
0
LINE
8
Layer 1
10
158.806039
20
163.669308
11
160.067670
21
164.047190
0
LINE
8
Layer 1
10
160.067670
20
164.047190
11
157.096277
21
161.398775
0
LINE
8
Layer 1
10
157.096277
20
161.398775
11
154.124880
21
158.750360
0
LINE
8
Layer 1
10
154.124880
20
158.750360
11
154.728851
21
158.361978
0
LINE
8
Layer 1
10
154.728851
20
158.361978
11
155.526606
21
158.162538
0
LINE
8
Layer 1
10
155.526606
20
158.162538
11
157.432170
21
158.078563
0
LINE
8
Layer 1
10
157.432170
20
158.078563
11
155.724024
21
156.712772
0
LINE
8
Layer 1
10
155.724024
20
156.712772
11
153.708241
21
155.523812
0
LINE
8
Layer 1
10
153.708241
20
155.523812
11
149.499847
21
153.453530
0
LINE
8
Layer 1
10
149.499847
20
153.453530
11
150.089684
21
152.796673
0
LINE
8
Layer 1
10
150.089684
20
152.796673
11
150.807905
21
152.636394
0
LINE
8
Layer 1
10
150.807905
20
152.636394
11
152.135340
21
152.807570
0
LINE
8
Layer 1
10
152.135340
20
152.807570
11
150.427193
21
151.814818
0
LINE
8
Layer 1
10
150.427193
20
151.814818
11
148.411410
21
150.892315
0
LINE
8
Layer 1
10
148.411410
20
150.892315
11
146.274509
21
150.100617
0
LINE
8
Layer 1
10
146.274509
20
150.100617
11
144.203010
21
149.500280
0
LINE
8
Layer 1
10
144.203010
20
149.500280
11
145.268839
21
148.576565
0
LINE
8
Layer 1
10
145.268839
20
148.576565
11
145.961625
21
148.272158
0
LINE
8
Layer 1
10
145.961625
20
148.272158
11
146.838510
21
148.156693
0
LINE
8
Layer 1
10
146.838510
20
148.156693
11
145.545540
21
147.562566
0
LINE
8
Layer 1
10
145.545540
20
147.562566
11
144.183231
21
147.206736
0
LINE
8
Layer 1
10
144.183231
20
147.206736
11
141.467393
21
146.932609
0
LINE
8
Layer 1
10
141.467393
20
146.932609
11
139.124593
21
146.779599
0
LINE
8
Layer 1
10
139.124593
20
146.779599
11
138.228582
21
146.575164
0
LINE
8
Layer 1
10
138.228582
20
146.575164
11
137.588430
21
146.192990
0
LINE
8
Layer 1
10
137.588430
20
146.192990
11
137.804825
21
145.689550
0
LINE
8
Layer 1
10
137.804825
20
145.689550
11
138.331280
21
145.188531
0
LINE
8
Layer 1
10
138.331280
20
145.188531
11
139.577977
21
144.203450
0
LINE
8
Layer 1
10
139.577977
20
144.203450
11
134.302540
21
144.368572
0
LINE
8
Layer 1
10
134.302540
20
144.368572
11
131.036984
21
144.760738
0
LINE
8
Layer 1
10
131.036984
20
144.760738
11
127.663332
21
145.524428
0
LINE
8
Layer 1
10
127.663332
20
145.524428
11
126.008734
21
146.084296
0
LINE
8
Layer 1
10
126.008734
20
146.084296
11
124.414430
21
146.783485
0
LINE
8
Layer 1
10
124.414430
20
146.783485
11
122.909525
21
147.637477
0
LINE
8
Layer 1
10
122.909525
20
147.637477
11
121.523125
21
148.661750
0
LINE
8
Layer 1
10
121.523125
20
148.661750
11
120.284336
21
149.871787
0
LINE
8
Layer 1
10
120.284336
20
149.871787
11
119.222263
21
151.283066
0
LINE
8
Layer 1
10
119.222263
20
151.283066
11
118.366012
21
152.911068
0
LINE
8
Layer 1
10
118.366012
20
152.911068
11
117.744690
21
154.771273
0
LINE
8
Layer 1
10
117.744690
20
154.771273
11
119.922822
21
157.042412
0
LINE
8
Layer 1
10
119.922822
20
157.042412
11
122.510630
21
159.389853
0
LINE
8
Layer 1
10
122.510630
20
159.389853
11
125.547174
21
161.829343
0
LINE
8
Layer 1
10
125.547174
20
161.829343
11
129.071515
21
164.376627
0
LINE
8
Layer 1
10
129.071515
20
164.376627
11
133.122713
21
167.047449
0
LINE
8
Layer 1
10
133.122713
20
167.047449
11
137.739828
21
169.857555
0
LINE
8
Layer 1
10
137.739828
20
169.857555
11
142.961920
21
172.822690
0
LINE
8
Layer 1
10
142.961920
20
172.822690
11
148.828050
21
175.958600
0
LINE
8
Layer 1
10
148.828050
20
175.958600
11
139.562229
21
172.321873
0
LINE
8
Layer 1
10
139.562229
20
172.321873
11
135.078443
21
170.355747
0
LINE
8
Layer 1
10
135.078443
20
170.355747
11
130.725160
21
168.258815
0
LINE
8
Layer 1
10
130.725160
20
168.258815
11
126.525695
21
166.006855
0
LINE
8
Layer 1
10
126.525695
20
166.006855
11
122.503363
21
163.575641
0
LINE
8
Layer 1
10
122.503363
20
163.575641
11
118.681480
21
160.940952
0
LINE
8
Layer 1
10
118.681480
20
160.940952
11
115.083360
21
158.078563
0
LINE
8
Layer 1
10
115.083360
20
158.078563
11
113.306150
21
159.160804
0
LINE
8
Layer 1
10
113.306150
20
159.160804
11
111.918784
21
160.405719
0
LINE
8
Layer 1
10
111.918784
20
160.405719
11
110.893254
21
161.790070
0
LINE
8
Layer 1
10
110.893254
20
161.790070
11
110.201552
21
163.290616
0
LINE
8
Layer 1
10
110.201552
20
163.290616
11
109.815670
21
164.884120
0
LINE
8
Layer 1
10
109.815670
20
164.884120
11
109.707598
21
166.547341
0
LINE
8
Layer 1
10
109.707598
20
166.547341
11
109.849330
21
168.257040
0
LINE
8
Layer 1
10
109.849330
20
168.257040
11
110.212856
21
169.989979
0
LINE
8
Layer 1
10
110.212856
20
169.989979
11
110.770169
21
171.722918
0
LINE
8
Layer 1
10
110.770169
20
171.722918
11
111.493260
21
173.432617
0
LINE
8
Layer 1
10
111.493260
20
173.432617
11
113.324745
21
176.689341
0
LINE
8
Layer 1
10
113.324745
20
176.689341
11
115.483243
21
179.574236
0
LINE
8
Layer 1
10
115.483243
20
179.574236
11
117.744690
21
181.901390
0
LINE
8
Layer 1
10
117.744690
20
181.901390
11
117.744690
21
181.901390
0
LINE
8
Layer 1
10
105.833280
20
143.531660
11
108.877899
21
143.264648
0
LINE
8
Layer 1
10
108.877899
20
143.264648
11
111.969450
21
142.509839
0
LINE
8
Layer 1
10
111.969450
20
142.509839
11
114.968348
21
141.336572
0
LINE
8
Layer 1
10
114.968348
20
141.336572
11
117.735004
21
139.814187
0
LINE
8
Layer 1
10
117.735004
20
139.814187
11
120.129832
21
138.012022
0
LINE
8
Layer 1
10
120.129832
20
138.012022
11
122.013245
21
135.999417
0
LINE
8
Layer 1
10
122.013245
20
135.999417
11
122.719550
21
134.935868
0
LINE
8
Layer 1
10
122.719550
20
134.935868
11
123.245657
21
133.845711
0
LINE
8
Layer 1
10
123.245657
20
133.845711
11
123.574116
21
132.737614
0
LINE
8
Layer 1
10
123.574116
20
132.737614
11
123.687480
21
131.620243
0
LINE
8
Layer 1
10
123.687480
20
131.620243
11
123.603354
21
130.647728
0
LINE
8
Layer 1
10
123.603354
20
130.647728
11
123.354813
21
129.709428
0
LINE
8
Layer 1
10
123.354813
20
129.709428
11
122.947609
21
128.809279
0
LINE
8
Layer 1
10
122.947609
20
128.809279
11
122.387496
21
127.951219
0
LINE
8
Layer 1
10
122.387496
20
127.951219
11
120.831551
21
126.377108
0
LINE
8
Layer 1
10
120.831551
20
126.377108
11
118.733005
21
125.018584
0
LINE
8
Layer 1
10
118.733005
20
125.018584
11
116.137880
21
123.907138
0
LINE
8
Layer 1
10
116.137880
20
123.907138
11
113.092202
21
123.074261
0
LINE
8
Layer 1
10
113.092202
20
123.074261
11
109.641994
21
122.551441
0
LINE
8
Layer 1
10
109.641994
20
122.551441
11
105.833280
21
122.370170
0
LINE
8
Layer 1
10
105.833280
20
122.370170
11
102.024568
21
122.606801
0
LINE
8
Layer 1
10
102.024568
20
122.606801
11
98.574361
21
123.270066
0
LINE
8
Layer 1
10
98.574361
20
123.270066
11
95.528683
21
124.290019
0
LINE
8
Layer 1
10
95.528683
20
124.290019
11
92.933558
21
125.596715
0
LINE
8
Layer 1
10
92.933558
20
125.596715
11
90.835010
21
127.120210
0
LINE
8
Layer 1
10
90.835010
20
127.120210
11
89.279065
21
128.790559
0
LINE
8
Layer 1
10
89.279065
20
128.790559
11
88.311747
21
130.537817
0
LINE
8
Layer 1
10
88.311747
20
130.537817
11
88.063206
21
131.418430
0
LINE
8
Layer 1
10
88.063206
20
131.418430
11
87.979080
21
132.292040
0
LINE
8
Layer 1
10
87.979080
20
132.292040
11
88.077967
21
133.180449
0
LINE
8
Layer 1
10
88.077967
20
133.180449
11
88.366855
21
134.102885
0
LINE
8
Layer 1
10
88.366855
20
134.102885
11
89.468007
21
135.999419
0
LINE
8
Layer 1
10
89.468007
20
135.999419
11
91.189276
21
137.880814
0
LINE
8
Layer 1
10
91.189276
20
137.880814
11
93.437402
21
139.646240
0
LINE
8
Layer 1
10
93.437402
20
139.646240
11
96.119126
21
141.194867
0
LINE
8
Layer 1
10
96.119126
20
141.194867
11
99.141187
21
142.425866
0
LINE
8
Layer 1
10
99.141187
20
142.425866
11
102.410325
21
143.238406
0
LINE
8
Layer 1
10
102.410325
20
143.238406
11
105.833280
21
143.531660
0
LINE
8
Layer 1
10
105.833280
20
143.531660
11
105.833280
21
143.531660
0
LINE
8
Layer 1
10
65.474010
20
147.510740
11
66.362198
21
147.622167
0
LINE
8
Layer 1
10
66.362198
20
147.622167
11
67.056599
21
147.917691
0
LINE
8
Layer 1
10
67.056599
20
147.917691
11
68.135340
21
148.828490
0
LINE
8
Layer 1
10
68.135340
20
148.828490
11
63.339124
21
150.566109
0
LINE
8
Layer 1
10
63.339124
20
150.566109
11
61.249863
21
151.531810
0
LINE
8
Layer 1
10
61.249863
20
151.531810
11
60.336493
21
152.119427
0
LINE
8
Layer 1
10
60.336493
20
152.119427
11
59.531220
21
152.807570
0
LINE
8
Layer 1
10
59.531220
20
152.807570
11
61.184865
21
152.888315
0
LINE
8
Layer 1
10
61.184865
20
152.888315
11
62.838510
21
153.453530
0
LINE
8
Layer 1
10
62.838510
20
153.453530
11
58.872347
21
155.523812
0
LINE
8
Layer 1
10
58.872347
20
155.523812
11
56.886842
21
156.712772
0
LINE
8
Layer 1
10
56.886842
20
156.712772
11
54.906180
21
158.078563
0
LINE
8
Layer 1
10
54.906180
20
158.078563
11
56.802060
21
158.162538
0
LINE
8
Layer 1
10
56.802060
20
158.162538
11
57.598603
21
158.361978
0
LINE
8
Layer 1
10
57.598603
20
158.361978
11
58.213470
21
158.750360
0
LINE
8
Layer 1
10
58.213470
20
158.750360
11
55.229160
21
161.062880
0
LINE
8
Layer 1
10
55.229160
20
161.062880
11
52.244850
21
163.375400
0
LINE
8
Layer 1
10
52.244850
20
163.375400
11
55.552140
21
163.375400
0
LINE
8
Layer 1
10
55.552140
20
163.375400
11
54.085418
21
165.161060
0
LINE
8
Layer 1
10
54.085418
20
165.161060
11
52.674408
21
166.692376
0
LINE
8
Layer 1
10
52.674408
20
166.692376
11
51.384517
21
168.218850
0
LINE
8
Layer 1
10
51.384517
20
168.218850
11
50.281147
21
169.989980
0
LINE
8
Layer 1
10
50.281147
20
169.989980
11
51.269455
21
169.626627
0
LINE
8
Layer 1
10
51.269455
20
169.626627
11
52.257766
21
169.505510
0
LINE
8
Layer 1
10
52.257766
20
169.505510
11
53.246078
21
169.626627
0
LINE
8
Layer 1
10
53.246078
20
169.626627
11
54.234390
21
169.989980
0
LINE
8
Layer 1
10
54.234390
20
169.989980
11
53.876441
21
170.460264
0
LINE
8
Layer 1
10
53.876441
20
170.460264
11
53.323191
21
170.908445
0
LINE
8
Layer 1
10
53.323191
20
170.908445
11
51.847587
21
171.892315
0
LINE
8
Layer 1
10
51.847587
20
171.892315
11
50.241178
21
173.249225
0
LINE
8
Layer 1
10
50.241178
20
173.249225
11
49.524420
21
174.163706
0
LINE
8
Layer 1
10
49.524420
20
174.163706
11
48.937560
21
175.286810
0
LINE
8
Layer 1
10
48.937560
20
175.286810
11
52.244850
21
175.286810
0
LINE
8
Layer 1
10
52.244850
20
175.286810
11
51.655010
21
177.141911
0
LINE
8
Layer 1
10
51.655010
20
177.141911
11
50.936789
21
178.752358
0
LINE
8
Layer 1
10
50.936789
20
178.752358
11
49.609350
21
181.229593
0
LINE
8
Layer 1
10
49.609350
20
181.229593
11
57.541680
21
181.229593
0
LINE
8
Layer 1
10
57.541680
20
181.229593
11
55.552140
21
183.890930
0
LINE
8
Layer 1
10
55.552140
20
183.890930
11
58.012018
21
184.152945
0
LINE
8
Layer 1
10
58.012018
20
184.152945
11
60.348356
21
184.049189
0
LINE
8
Layer 1
10
60.348356
20
184.049189
11
62.437617
21
183.698356
0
LINE
8
Layer 1
10
62.437617
20
183.698356
11
64.156260
21
183.219140
0
LINE
8
Layer 1
10
64.156260
20
183.219140
11
64.532025
21
183.498817
0
LINE
8
Layer 1
10
64.532025
20
183.498817
11
64.691596
21
183.823914
0
LINE
8
Layer 1
10
64.691596
20
183.823914
11
64.665859
21
184.179290
0
LINE
8
Layer 1
10
64.665859
20
184.179290
11
64.485698
21
184.549805
0
LINE
8
Layer 1
10
64.485698
20
184.549805
11
63.785643
21
185.275696
0
LINE
8
Layer 1
10
63.785643
20
185.275696
11
62.838510
21
185.880470
0
LINE
8
Layer 1
10
62.838510
20
185.880470
11
70.124887
21
183.890930
0
LINE
8
Layer 1
10
70.124887
20
183.890930
11
70.471783
21
184.357330
0
LINE
8
Layer 1
10
70.471783
20
184.357330
11
70.555252
21
184.778311
0
LINE
8
Layer 1
10
70.555252
20
184.778311
11
70.421922
21
185.169013
0
LINE
8
Layer 1
10
70.421922
20
185.169013
11
70.118423
21
185.544575
0
LINE
8
Layer 1
10
70.118423
20
185.544575
11
68.135340
21
187.198220
0
LINE
8
Layer 1
10
68.135340
20
187.198220
11
71.046176
21
186.583353
0
LINE
8
Layer 1
10
71.046176
20
186.583353
11
73.089818
21
185.786810
0
LINE
8
Layer 1
10
73.089818
20
185.786810
11
74.639303
21
184.869149
0
LINE
8
Layer 1
10
74.639303
20
184.869149
11
76.067670
21
183.890930
0
LINE
8
Layer 1
10
76.067670
20
183.890930
11
76.444696
21
184.357330
0
LINE
8
Layer 1
10
76.444696
20
184.357330
11
76.613099
21
184.778311
0
LINE
8
Layer 1
10
76.613099
20
184.778311
11
76.477853
21
185.544575
0
LINE
8
Layer 1
10
76.477853
20
185.544575
11
75.395880
21
187.198220
0
LINE
8
Layer 1
10
75.395880
20
187.198220
11
77.548525
21
186.205871
0
LINE
8
Layer 1
10
77.548525
20
186.205871
11
79.207015
21
185.208678
0
LINE
8
Layer 1
10
79.207015
20
185.208678
11
82.010460
21
183.219140
0
LINE
8
Layer 1
10
82.010460
20
183.219140
11
82.493310
21
183.739535
0
LINE
8
Layer 1
10
82.493310
20
183.739535
11
82.850200
21
184.378626
0
LINE
8
Layer 1
10
82.850200
20
184.378626
11
82.955167
21
185.264796
0
LINE
8
Layer 1
10
82.955167
20
185.264796
11
82.682250
21
186.526430
0
LINE
8
Layer 1
10
82.682250
20
186.526430
11
84.994770
21
184.465831
0
LINE
8
Layer 1
10
84.994770
20
184.465831
11
86.214010
21
183.278081
0
LINE
8
Layer 1
10
86.214010
20
183.278081
11
87.307290
21
181.901390
0
LINE
8
Layer 1
10
87.307290
20
181.901390
11
87.714494
21
182.182329
0
LINE
8
Layer 1
10
87.714494
20
182.182329
11
87.968183
21
182.516257
0
LINE
8
Layer 1
10
87.968183
20
182.516257
11
88.137341
21
183.312800
0
LINE
8
Layer 1
10
88.137341
20
183.312800
11
87.979080
21
185.208680
0
LINE
8
Layer 1
10
87.979080
20
185.208680
11
90.869733
21
182.227596
0
LINE
8
Layer 1
10
90.869733
20
182.227596
11
93.275917
21
179.265890
0
LINE
8
Layer 1
10
93.275917
20
179.265890
11
93.649358
21
179.492378
0
LINE
8
Layer 1
10
93.649358
20
179.492378
11
93.841126
21
180.089484
0
LINE
8
Layer 1
10
93.841126
20
180.089484
11
93.921870
21
181.901390
0
LINE
8
Layer 1
10
93.921870
20
181.901390
11
95.989128
21
179.574236
0
LINE
8
Layer 1
10
95.989128
20
179.574236
11
98.047907
21
176.689341
0
LINE
8
Layer 1
10
98.047907
20
176.689341
11
99.842653
21
173.432617
0
LINE
8
Layer 1
10
99.842653
20
173.432617
11
100.561152
21
171.722918
0
LINE
8
Layer 1
10
100.561152
20
171.722918
11
101.117809
21
169.989979
0
LINE
8
Layer 1
10
101.117809
20
169.989979
11
101.480679
21
168.257040
0
LINE
8
Layer 1
10
101.480679
20
168.257040
11
101.617818
21
166.547341
0
LINE
8
Layer 1
10
101.617818
20
166.547341
11
101.497282
21
164.884120
0
LINE
8
Layer 1
10
101.497282
20
164.884120
11
101.087126
21
163.290616
0
LINE
8
Layer 1
10
101.087126
20
163.290616
11
100.355405
21
161.790070
0
LINE
8
Layer 1
10
100.355405
20
161.790070
11
99.270175
21
160.405719
0
LINE
8
Layer 1
10
99.270175
20
160.405719
11
97.799492
21
159.160804
0
LINE
8
Layer 1
10
97.799492
20
159.160804
11
95.911410
21
158.078563
0
LINE
8
Layer 1
10
95.911410
20
158.078563
11
92.321768
21
160.968506
0
LINE
8
Layer 1
10
92.321768
20
160.968506
11
88.505940
21
163.670113
0
LINE
8
Layer 1
10
88.505940
20
163.670113
11
84.487241
21
166.183988
0
LINE
8
Layer 1
10
84.487241
20
166.183988
11
80.288987
21
168.510739
0
LINE
8
Layer 1
10
80.288987
20
168.510739
11
75.934493
21
170.650970
0
LINE
8
Layer 1
10
75.934493
20
170.650970
11
71.447074
21
172.605287
0
LINE
8
Layer 1
10
71.447074
20
172.605287
11
66.850044
21
174.374295
0
LINE
8
Layer 1
10
66.850044
20
174.374295
11
62.166720
21
175.958600
0
LINE
8
Layer 1
10
62.166720
20
175.958600
11
68.033960
21
172.822690
0
LINE
8
Layer 1
10
68.033960
20
172.822690
11
73.258979
21
169.857555
0
LINE
8
Layer 1
10
73.258979
20
169.857555
11
77.880232
21
167.047449
0
LINE
8
Layer 1
10
77.880232
20
167.047449
11
81.936173
21
164.376627
0
LINE
8
Layer 1
10
81.936173
20
164.376627
11
85.465258
21
161.829343
0
LINE
8
Layer 1
10
85.465258
20
161.829343
11
88.505940
21
159.389853
0
LINE
8
Layer 1
10
88.505940
20
159.389853
11
91.096675
21
157.042412
0
LINE
8
Layer 1
10
91.096675
20
157.042412
11
93.275917
21
154.771273
0
LINE
8
Layer 1
10
93.275917
20
154.771273
11
92.650337
21
152.903688
0
LINE
8
Layer 1
10
92.650337
20
152.903688
11
91.790926
21
151.255512
0
LINE
8
Layer 1
10
91.790926
20
151.255512
11
90.726677
21
149.814219
0
LINE
8
Layer 1
10
90.726677
20
149.814219
11
89.486582
21
148.567280
0
LINE
8
Layer 1
10
89.486582
20
148.567280
11
88.099633
21
147.502167
0
LINE
8
Layer 1
10
88.099633
20
147.502167
11
86.594822
21
146.606353
0
LINE
8
Layer 1
10
86.594822
20
146.606353
11
85.001143
21
145.867309
0
LINE
8
Layer 1
10
85.001143
20
145.867309
11
83.347586
21
145.272507
0
LINE
8
Layer 1
10
83.347586
20
145.272507
11
79.976810
21
144.465517
0
LINE
8
Layer 1
10
79.976810
20
144.465517
11
76.714434
21
144.085161
0
LINE
8
Layer 1
10
76.714434
20
144.085161
11
73.792394
21
144.031213
0
LINE
8
Layer 1
10
73.792394
20
144.031213
11
71.442630
21
144.203450
0
LINE
8
Layer 1
10
71.442630
20
144.203450
11
72.931560
21
145.188531
0
LINE
8
Layer 1
10
72.931560
20
145.188531
11
73.306619
21
145.689550
0
LINE
8
Layer 1
10
73.306619
20
145.689550
11
73.432177
21
146.192990
0
LINE
8
Layer 1
10
73.432177
20
146.192990
11
73.032996
21
146.381025
0
LINE
8
Layer 1
10
73.032996
20
146.381025
11
72.370387
21
146.486094
0
LINE
8
Layer 1
10
72.370387
20
146.486094
11
70.441403
21
146.599944
0
LINE
8
Layer 1
10
70.441403
20
146.599944
11
68.018265
21
146.839754
0
LINE
8
Layer 1
10
68.018265
20
146.839754
11
66.737962
21
147.102274
0
LINE
8
Layer 1
10
66.737962
20
147.102274
11
65.474010
21
147.510740
0
LINE
8
Layer 1
10
65.474010
20
147.510740
11
65.474010
21
147.510740
0
LINE
8
Layer 1
10
84.000000
20
139.578410
11
84.390107
21
139.435972
0
LINE
8
Layer 1
10
84.390107
20
139.435972
11
84.575594
21
139.142290
0
LINE
8
Layer 1
10
84.575594
20
139.142290
11
84.568940
21
138.708870
0
LINE
8
Layer 1
10
84.568940
20
138.708870
11
84.382627
21
138.147217
0
LINE
8
Layer 1
10
84.382627
20
138.147217
11
83.520945
21
136.685239
0
LINE
8
Layer 1
10
83.520945
20
136.685239
11
82.090395
21
134.848406
0
LINE
8
Layer 1
10
82.090395
20
134.848406
11
77.922067
21
130.418366
0
LINE
8
Layer 1
10
77.922067
20
130.418366
11
72.676407
21
125.593486
0
LINE
8
Layer 1
10
72.676407
20
125.593486
11
67.152179
21
121.110155
0
LINE
8
Layer 1
10
67.152179
20
121.110155
11
64.535216
21
119.226691
0
LINE
8
Layer 1
10
64.535216
20
119.226691
11
62.148148
21
117.704761
0
LINE
8
Layer 1
10
62.148148
20
117.704761
11
60.090819
21
116.636412
0
LINE
8
Layer 1
10
60.090819
20
116.636412
11
58.463075
21
116.113693
0
LINE
8
Layer 1
10
58.463075
20
116.113693
11
57.841500
21
116.085710
0
LINE
8
Layer 1
10
57.841500
20
116.085710
11
57.364763
21
116.228653
0
LINE
8
Layer 1
10
57.364763
20
116.228653
11
57.045345
21
116.554027
0
LINE
8
Layer 1
10
57.045345
20
116.554027
11
56.895727
21
117.073340
0
LINE
8
Layer 1
10
56.895727
20
117.073340
11
56.922214
21
119.973709
0
LINE
8
Layer 1
10
56.922214
20
119.973709
11
57.243280
21
122.710760
0
LINE
8
Layer 1
10
57.243280
20
122.710760
11
57.843444
21
125.276810
0
LINE
8
Layer 1
10
57.843444
20
125.276810
11
58.707225
21
127.664175
0
LINE
8
Layer 1
10
58.707225
20
127.664175
11
59.819145
21
129.865172
0
LINE
8
Layer 1
10
59.819145
20
129.865172
11
61.163722
21
131.872118
0
LINE
8
Layer 1
10
61.163722
20
131.872118
11
62.725476
21
133.677328
0
LINE
8
Layer 1
10
62.725476
20
133.677328
11
64.488927
21
135.273121
0
LINE
8
Layer 1
10
64.488927
20
135.273121
11
66.438595
21
136.651813
0
LINE
8
Layer 1
10
66.438595
20
136.651813
11
68.558999
21
137.805719
0
LINE
8
Layer 1
10
68.558999
20
137.805719
11
70.834660
21
138.727158
0
LINE
8
Layer 1
10
70.834660
20
138.727158
11
73.250097
21
139.408445
0
LINE
8
Layer 1
10
73.250097
20
139.408445
11
75.789829
21
139.841897
0
LINE
8
Layer 1
10
75.789829
20
139.841897
11
78.438378
21
140.019830
0
LINE
8
Layer 1
10
78.438378
20
140.019830
11
81.180261
21
139.934563
0
LINE
8
Layer 1
10
81.180261
20
139.934563
11
84.000000
21
139.578410
0
LINE
8
Layer 1
10
84.000000
20
139.578410
11
84.000000
21
139.578410
0
LINE
8
Layer 1
10
50.281147
20
76.739900
11
48.854261
21
78.106846
0
LINE
8
Layer 1
10
48.854261
20
78.106846
11
47.569498
21
79.707206
0
LINE
8
Layer 1
10
47.569498
20
79.707206
11
46.444230
21
81.510966
0
LINE
8
Layer 1
10
46.444230
20
81.510966
11
45.495830
21
83.488112
0
LINE
8
Layer 1
10
45.495830
20
83.488112
11
44.741671
21
85.608630
0
LINE
8
Layer 1
10
44.741671
20
85.608630
11
44.199125
21
87.842506
0
LINE
8
Layer 1
10
44.199125
20
87.842506
11
43.885566
21
90.159724
0
LINE
8
Layer 1
10
43.885566
20
90.159724
11
43.818365
21
92.530272
0
LINE
8
Layer 1
10
43.818365
20
92.530272
11
44.014895
21
94.924135
0
LINE
8
Layer 1
10
44.014895
20
94.924135
11
44.492529
21
97.311299
0
LINE
8
Layer 1
10
44.492529
20
97.311299
11
45.268640
21
99.661749
0
LINE
8
Layer 1
10
45.268640
20
99.661749
11
46.360601
21
101.945472
0
LINE
8
Layer 1
10
46.360601
20
101.945472
11
47.785783
21
104.132452
0
LINE
8
Layer 1
10
47.785783
20
104.132452
11
49.561561
21
106.192676
0
LINE
8
Layer 1
10
49.561561
20
106.192676
11
51.705305
21
108.096130
0
LINE
8
Layer 1
10
51.705305
20
108.096130
11
54.234390
21
109.812800
0
LINE
8
Layer 1
10
54.234390
20
109.812800
11
55.000665
21
109.942249
0
LINE
8
Layer 1
10
55.000665
20
109.942249
11
55.687675
21
109.846455
0
LINE
8
Layer 1
10
55.687675
20
109.846455
11
56.297606
21
109.540438
0
LINE
8
Layer 1
10
56.297606
20
109.540438
11
56.832643
21
109.039219
0
LINE
8
Layer 1
10
56.832643
20
109.039219
11
57.686780
21
107.511265
0
LINE
8
Layer 1
10
57.686780
20
107.511265
11
58.267571
21
105.382761
0
LINE
8
Layer 1
10
58.267571
20
105.382761
11
58.592504
21
102.773879
0
LINE
8
Layer 1
10
58.592504
20
102.773879
11
58.679065
21
99.804789
0
LINE
8
Layer 1
10
58.679065
20
99.804789
11
58.544739
21
96.595660
0
LINE
8
Layer 1
10
58.544739
20
96.595660
11
58.207013
21
93.266664
0
LINE
8
Layer 1
10
58.207013
20
93.266664
11
57.683374
21
89.937970
0
LINE
8
Layer 1
10
57.683374
20
89.937970
11
56.991306
21
86.729750
0
LINE
8
Layer 1
10
56.991306
20
86.729750
11
56.148297
21
83.762173
0
LINE
8
Layer 1
10
56.148297
20
83.762173
11
55.171833
21
81.155409
0
LINE
8
Layer 1
10
55.171833
20
81.155409
11
54.079399
21
79.029630
0
LINE
8
Layer 1
10
54.079399
20
79.029630
11
52.888483
21
77.505005
0
LINE
8
Layer 1
10
52.888483
20
77.505005
11
52.261558
21
77.005679
0
LINE
8
Layer 1
10
52.261558
20
77.005679
11
51.616570
21
76.701705
0
LINE
8
Layer 1
10
51.616570
20
76.701705
11
50.955704
21
76.608105
0
LINE
8
Layer 1
10
50.955704
20
76.608105
11
50.281147
21
76.739900
0
LINE
8
Layer 1
10
50.281147
20
76.739900
11
50.281147
21
76.739900
0
LINE
8
Layer 1
10
80.692710
20
43.667000
11
78.696708
21
42.865866
0
LINE
8
Layer 1
10
78.696708
20
42.865866
11
76.250153
21
42.499842
0
LINE
8
Layer 1
10
76.250153
20
42.499842
11
73.462050
21
42.631001
0
LINE
8
Layer 1
10
73.462050
20
42.631001
11
70.441403
21
43.321416
0
LINE
8
Layer 1
10
70.441403
20
43.321416
11
67.297216
21
44.633159
0
LINE
8
Layer 1
10
67.297216
20
44.633159
11
65.712860
21
45.541426
0
LINE
8
Layer 1
10
65.712860
20
45.541426
11
64.138495
21
46.628302
0
LINE
8
Layer 1
10
64.138495
20
46.628302
11
62.587749
21
47.901547
0
LINE
8
Layer 1
10
62.587749
20
47.901547
11
61.074245
21
49.368919
0
LINE
8
Layer 1
10
61.074245
20
49.368919
11
59.611610
21
51.038177
0
LINE
8
Layer 1
10
59.611610
20
51.038177
11
58.213470
21
52.917080
0
LINE
8
Layer 1
10
58.213470
20
52.917080
11
56.501690
21
56.374049
0
LINE
8
Layer 1
10
56.501690
20
56.374049
11
55.317978
21
59.755320
0
LINE
8
Layer 1
10
55.317978
20
59.755320
11
54.630844
21
62.982774
0
LINE
8
Layer 1
10
54.630844
20
62.982774
11
54.408797
21
65.978290
0
LINE
8
Layer 1
10
54.408797
20
65.978290
11
54.620348
21
68.663748
0
LINE
8
Layer 1
10
54.620348
20
68.663748
11
55.234006
21
70.961027
0
LINE
8
Layer 1
10
55.234006
20
70.961027
11
56.218280
21
72.792008
0
LINE
8
Layer 1
10
56.218280
20
72.792008
11
56.839557
21
73.508224
0
LINE
8
Layer 1
10
56.839557
20
73.508224
11
57.541680
21
74.078570
0
LINE
8
Layer 1
10
57.541680
20
74.078570
11
58.572136
21
74.607017
0
LINE
8
Layer 1
10
58.572136
20
74.607017
11
59.671363
21
74.957271
0
LINE
8
Layer 1
10
59.671363
20
74.957271
11
60.830619
21
75.137053
0
LINE
8
Layer 1
10
60.830619
20
75.137053
11
62.041160
21
75.154085
0
LINE
8
Layer 1
10
62.041160
20
75.154085
11
64.581125
21
74.730782
0
LINE
8
Layer 1
10
64.581125
20
74.730782
11
67.221315
21
73.749132
0
LINE
8
Layer 1
10
67.221315
20
73.749132
11
69.891784
21
72.270903
0
LINE
8
Layer 1
10
69.891784
20
72.270903
11
72.522588
21
70.357866
0
LINE
8
Layer 1
10
72.522588
20
70.357866
11
75.043781
21
68.071790
0
LINE
8
Layer 1
10
75.043781
20
68.071790
11
77.385420
21
65.474443
0
LINE
8
Layer 1
10
77.385420
20
65.474443
11
79.237999
21
62.993321
0
LINE
8
Layer 1
10
79.237999
20
62.993321
11
80.787180
21
60.115844
0
LINE
8
Layer 1
10
80.787180
20
60.115844
11
81.979069
21
57.005218
0
LINE
8
Layer 1
10
81.979069
20
57.005218
11
82.759766
21
53.824647
0
LINE
8
Layer 1
10
82.759766
20
53.824647
11
83.075376
21
50.737335
0
LINE
8
Layer 1
10
83.075376
20
50.737335
11
82.872001
21
47.906486
0
LINE
8
Layer 1
10
82.872001
20
47.906486
11
82.558852
21
46.638238
0
LINE
8
Layer 1
10
82.558852
20
46.638238
11
82.095745
21
45.495307
0
LINE
8
Layer 1
10
82.095745
20
45.495307
11
81.475943
21
44.498094
0
LINE
8
Layer 1
10
81.475943
20
44.498094
11
80.692710
21
43.667000
0
LINE
8
Layer 1
10
80.692710
20
43.667000
11
80.692710
21
43.667000
0
LINE
8
Layer 1
10
72.088590
20
84.000440
11
70.678950
21
85.069010
0
LINE
8
Layer 1
10
70.678950
20
85.069010
11
69.425286
21
86.280005
0
LINE
8
Layer 1
10
69.425286
20
86.280005
11
68.328544
21
87.620822
0
LINE
8
Layer 1
10
68.328544
20
87.620822
11
67.389669
21
89.078857
0
LINE
8
Layer 1
10
67.389669
20
89.078857
11
66.609609
21
90.641506
0
LINE
8
Layer 1
10
66.609609
20
90.641506
11
65.989309
21
92.296167
0
LINE
8
Layer 1
10
65.989309
20
92.296167
11
65.529716
21
94.030234
0
LINE
8
Layer 1
10
65.529716
20
94.030234
11
65.231775
21
95.831105
0
LINE
8
Layer 1
10
65.231775
20
95.831105
11
65.096433
21
97.686175
0
LINE
8
Layer 1
10
65.096433
20
97.686175
11
65.124637
21
99.582842
0
LINE
8
Layer 1
10
65.124637
20
99.582842
11
65.317333
21
101.508501
0
LINE
8
Layer 1
10
65.317333
20
101.508501
11
65.675466
21
103.450548
0
LINE
8
Layer 1
10
65.675466
20
103.450548
11
66.199983
21
105.396380
0
LINE
8
Layer 1
10
66.199983
20
105.396380
11
66.891830
21
107.333394
0
LINE
8
Layer 1
10
66.891830
20
107.333394
11
67.751954
21
109.248985
0
LINE
8
Layer 1
10
67.751954
20
109.248985
11
68.781300
21
111.130550
0
LINE
8
Layer 1
10
68.781300
20
111.130550
11
70.074087
21
112.802193
0
LINE
8
Layer 1
10
70.074087
20
112.802193
11
71.464184
21
114.344430
0
LINE
8
Layer 1
10
71.464184
20
114.344430
11
72.939894
21
115.751395
0
LINE
8
Layer 1
10
72.939894
20
115.751395
11
74.489524
21
117.017221
0
LINE
8
Layer 1
10
74.489524
20
117.017221
11
76.101378
21
118.136042
0
LINE
8
Layer 1
10
76.101378
20
118.136042
11
77.763759
21
119.101990
0
LINE
8
Layer 1
10
77.763759
20
119.101990
11
79.464974
21
119.909201
0
LINE
8
Layer 1
10
79.464974
20
119.909201
11
81.193326
21
120.551806
0
LINE
8
Layer 1
10
81.193326
20
120.551806
11
82.937121
21
121.023940
0
LINE
8
Layer 1
10
82.937121
20
121.023940
11
84.684662
21
121.319736
0
LINE
8
Layer 1
10
84.684662
20
121.319736
11
86.424256
21
121.433327
0
LINE
8
Layer 1
10
86.424256
20
121.433327
11
88.144205
21
121.358846
0
LINE
8
Layer 1
10
88.144205
20
121.358846
11
89.832816
21
121.090428
0
LINE
8
Layer 1
10
89.832816
20
121.090428
11
91.478392
21
120.622205
0
LINE
8
Layer 1
10
91.478392
20
120.622205
11
93.069238
21
119.948311
0
LINE
8
Layer 1
10
93.069238
20
119.948311
11
94.593660
21
119.062880
0
LINE
8
Layer 1
10
94.593660
20
119.062880
11
96.003300
21
117.994310
0
LINE
8
Layer 1
10
96.003300
20
117.994310
11
97.256964
21
116.783315
0
LINE
8
Layer 1
10
97.256964
20
116.783315
11
98.353706
21
115.442498
0
LINE
8
Layer 1
10
98.353706
20
115.442498
11
99.292581
21
113.984462
0
LINE
8
Layer 1
10
99.292581
20
113.984462
11
100.072641
21
112.421812
0
LINE
8
Layer 1
10
100.072641
20
112.421812
11
100.692941
21
110.767151
0
LINE
8
Layer 1
10
100.692941
20
110.767151
11
101.152534
21
109.033083
0
LINE
8
Layer 1
10
101.152534
20
109.033083
11
101.450475
21
107.232212
0
LINE
8
Layer 1
10
101.450475
20
107.232212
11
101.585817
21
105.377141
0
LINE
8
Layer 1
10
101.585817
20
105.377141
11
101.557613
21
103.480474
0
LINE
8
Layer 1
10
101.557613
20
103.480474
11
101.364917
21
101.554814
0
LINE
8
Layer 1
10
101.364917
20
101.554814
11
101.006784
21
99.612766
0
LINE
8
Layer 1
10
101.006784
20
99.612766
11
100.482267
21
97.666934
0
LINE
8
Layer 1
10
100.482267
20
97.666934
11
99.790420
21
95.729920
0
LINE
8
Layer 1
10
99.790420
20
95.729920
11
98.930296
21
93.814328
0
LINE
8
Layer 1
10
98.930296
20
93.814328
11
97.900950
21
91.932763
0
LINE
8
Layer 1
10
97.900950
20
91.932763
11
96.714898
21
90.150413
0
LINE
8
Layer 1
10
96.714898
20
90.150413
11
95.404588
21
88.526006
0
LINE
8
Layer 1
10
95.404588
20
88.526006
11
93.984440
21
87.062458
0
LINE
8
Layer 1
10
93.984440
20
87.062458
11
92.468874
21
85.762681
0
LINE
8
Layer 1
10
92.468874
20
85.762681
11
90.872312
21
84.629592
0
LINE
8
Layer 1
10
90.872312
20
84.629592
11
89.209174
21
83.666103
0
LINE
8
Layer 1
10
89.209174
20
83.666103
11
87.493880
21
82.875130
0
LINE
8
Layer 1
10
87.493880
20
82.875130
11
85.740850
21
82.259587
0
LINE
8
Layer 1
10
85.740850
20
82.259587
11
83.964505
21
81.822388
0
LINE
8
Layer 1
10
83.964505
20
81.822388
11
82.179266
21
81.566447
0
LINE
8
Layer 1
10
82.179266
20
81.566447
11
80.399553
21
81.494680
0
LINE
8
Layer 1
10
80.399553
20
81.494680
11
78.639786
21
81.610000
0
LINE
8
Layer 1
10
78.639786
20
81.610000
11
76.914385
21
81.915321
0
LINE
8
Layer 1
10
76.914385
20
81.915321
11
75.237772
21
82.413559
0
LINE
8
Layer 1
10
75.237772
20
82.413559
11
73.624367
21
83.107627
0
LINE
8
Layer 1
10
73.624367
20
83.107627
11
72.088590
21
84.000440
0
LINE
8
Layer 1
10
72.088590
20
84.000440
11
72.088590
21
84.000440
0
LINE
8
Layer 1
10
105.833280
20
25.141010
11
103.982896
21
25.120030
0
LINE
8
Layer 1
10
103.982896
20
25.120030
11
102.160824
21
25.294123
0
LINE
8
Layer 1
10
102.160824
20
25.294123
11
100.379628
21
25.640958
0
LINE
8
Layer 1
10
100.379628
20
25.640958
11
98.651875
21
26.138205
0
LINE
8
Layer 1
10
98.651875
20
26.138205
11
95.406961
21
27.494610
0
LINE
8
Layer 1
10
95.406961
20
27.494610
11
92.526607
21
29.184690
0
LINE
8
Layer 1
10
92.526607
20
29.184690
11
90.111341
21
31.029800
0
LINE
8
Layer 1
10
90.111341
20
31.029800
11
88.261690
21
32.851292
0
LINE
8
Layer 1
10
88.261690
20
32.851292
11
87.078179
21
34.470518
0
LINE
8
Layer 1
10
87.078179
20
34.470518
11
86.767642
21
35.148455
0
LINE
8
Layer 1
10
86.767642
20
35.148455
11
86.661337
21
35.708833
0
LINE
8
Layer 1
10
86.661337
20
35.708833
11
86.796760
21
36.446396
0
LINE
8
Layer 1
10
86.796760
20
36.446396
11
87.187588
21
37.164353
0
LINE
8
Layer 1
10
87.187588
20
37.164353
11
87.810657
21
37.858843
0
LINE
8
Layer 1
10
87.810657
20
37.858843
11
88.642804
21
38.526007
0
LINE
8
Layer 1
10
88.642804
20
38.526007
11
90.841675
21
39.762911
0
LINE
8
Layer 1
10
90.841675
20
39.762911
11
93.598894
21
40.844179
0
LINE
8
Layer 1
10
93.598894
20
40.844179
11
96.729152
21
41.738928
0
LINE
8
Layer 1
10
96.729152
20
41.738928
11
100.047141
21
42.416273
0
LINE
8
Layer 1
10
100.047141
20
42.416273
11
103.367552
21
42.845328
0
LINE
8
Layer 1
10
103.367552
20
42.845328
11
106.505077
21
42.995210
0
LINE
8
Layer 1
10
106.505077
20
42.995210
11
109.577449
21
43.067071
0
LINE
8
Layer 1
10
109.577449
20
43.067071
11
112.742174
21
42.804651
0
LINE
8
Layer 1
10
112.742174
20
42.804651
11
115.844525
21
42.246707
0
LINE
8
Layer 1
10
115.844525
20
42.246707
11
118.729775
21
41.431996
0
LINE
8
Layer 1
10
118.729775
20
41.431996
11
121.243196
21
40.399276
0
LINE
8
Layer 1
10
121.243196
20
40.399276
11
123.230064
21
39.187303
0
LINE
8
Layer 1
10
123.230064
20
39.187303
11
123.977688
21
38.526209
0
LINE
8
Layer 1
10
123.977688
20
38.526209
11
124.535651
21
37.834835
0
LINE
8
Layer 1
10
124.535651
20
37.834835
11
124.884612
21
37.118028
0
LINE
8
Layer 1
10
124.884612
20
37.118028
11
125.005230
21
36.380630
0
LINE
8
Layer 1
10
125.005230
20
36.380630
11
124.891544
21
35.820087
0
LINE
8
Layer 1
10
124.891544
20
35.820087
11
124.560833
21
35.141001
0
LINE
8
Layer 1
10
124.560833
20
35.141001
11
123.310405
21
33.512588
0
LINE
8
Layer 1
10
123.310405
20
33.512588
11
121.378091
21
31.666165
0
LINE
8
Layer 1
10
121.378091
20
31.666165
11
118.888035
21
29.772507
0
LINE
8
Layer 1
10
118.888035
20
29.772507
11
115.964381
21
28.002389
0
LINE
8
Layer 1
10
115.964381
20
28.002389
11
112.731275
21
26.526583
0
LINE
8
Layer 1
10
112.731275
20
26.526583
11
109.312859
21
25.515866
0
LINE
8
Layer 1
10
109.312859
20
25.515866
11
107.572956
21
25.238282
0
LINE
8
Layer 1
10
107.572956
20
25.238282
11
105.833280
21
25.141010
0
LINE
8
Layer 1
10
105.833280
20
25.141010
11
105.833280
21
25.141010
0
LINE
8
Layer 1
10
125.677020
20
67.463990
11
125.577812
21
65.628405
0
LINE
8
Layer 1
10
125.577812
20
65.628405
11
125.286671
21
63.848155
0
LINE
8
Layer 1
10
125.286671
20
63.848155
11
124.813326
21
62.131946
0
LINE
8
Layer 1
10
124.813326
20
62.131946
11
124.167504
21
60.488482
0
LINE
8
Layer 1
10
124.167504
20
60.488482
11
123.358931
21
58.926469
0
LINE
8
Layer 1
10
123.358931
20
58.926469
11
122.397335
21
57.454613
0
LINE
8
Layer 1
10
122.397335
20
57.454613
11
121.292443
21
56.081617
0
LINE
8
Layer 1
10
121.292443
20
56.081617
11
120.053982
21
54.816189
0
LINE
8
Layer 1
10
120.053982
20
54.816189
11
118.691679
21
53.667032
0
LINE
8
Layer 1
10
118.691679
20
53.667032
11
117.215262
21
52.642852
0
LINE
8
Layer 1
10
117.215262
20
52.642852
11
115.634458
21
51.752355
0
LINE
8
Layer 1
10
115.634458
20
51.752355
11
113.958993
21
51.004246
0
LINE
8
Layer 1
10
113.958993
20
51.004246
11
112.198596
21
50.407229
0
LINE
8
Layer 1
10
112.198596
20
50.407229
11
110.362992
21
49.970011
0
LINE
8
Layer 1
10
110.362992
20
49.970011
11
108.461910
21
49.701296
0
LINE
8
Layer 1
10
108.461910
20
49.701296
11
106.505077
21
49.609790
0
LINE
8
Layer 1
10
106.505077
20
49.609790
11
104.536440
21
49.701296
0
LINE
8
Layer 1
10
104.536440
20
49.701296
11
102.610875
21
49.970011
0
LINE
8
Layer 1
10
102.610875
20
49.970011
11
100.739964
21
50.407229
0
LINE
8
Layer 1
10
100.739964
20
50.407229
11
98.935289
21
51.004246
0
LINE
8
Layer 1
10
98.935289
20
51.004246
11
97.208432
21
51.752355
0
LINE
8
Layer 1
10
97.208432
20
51.752355
11
95.570973
21
52.642852
0
LINE
8
Layer 1
10
95.570973
20
52.642852
11
94.034496
21
53.667032
0
LINE
8
Layer 1
10
94.034496
20
53.667032
11
92.610582
21
54.816189
0
LINE
8
Layer 1
10
92.610582
20
54.816189
11
91.310812
21
56.081617
0
LINE
8
Layer 1
10
91.310812
20
56.081617
11
90.146768
21
57.454613
0
LINE
8
Layer 1
10
90.146768
20
57.454613
11
89.130032
21
58.926469
0
LINE
8
Layer 1
10
89.130032
20
58.926469
11
88.272187
21
60.488482
0
LINE
8
Layer 1
10
88.272187
20
60.488482
11
87.584812
21
62.131946
0
LINE
8
Layer 1
10
87.584812
20
62.131946
11
87.079491
21
63.848155
0
LINE
8
Layer 1
10
87.079491
20
63.848155
11
86.767806
21
65.628405
0
LINE
8
Layer 1
10
86.767806
20
65.628405
11
86.661337
21
67.463990
0
LINE
8
Layer 1
10
86.661337
20
67.463990
11
86.760261
21
69.299575
0
LINE
8
Layer 1
10
86.760261
20
69.299575
11
87.050625
21
71.079824
0
LINE
8
Layer 1
10
87.050625
20
71.079824
11
87.522816
21
72.796033
0
LINE
8
Layer 1
10
87.522816
20
72.796033
11
88.167219
21
74.439497
0
LINE
8
Layer 1
10
88.167219
20
74.439497
11
88.974222
21
76.001509
0
LINE
8
Layer 1
10
88.974222
20
76.001509
11
89.934209
21
77.473365
0
LINE
8
Layer 1
10
89.934209
20
77.473365
11
91.037568
21
78.846360
0
LINE
8
Layer 1
10
91.037568
20
78.846360
11
92.274686
21
80.111788
0
LINE
8
Layer 1
10
92.274686
20
80.111788
11
93.635948
21
81.260944
0
LINE
8
Layer 1
10
93.635948
20
81.260944
11
95.111740
21
82.285123
0
LINE
8
Layer 1
10
95.111740
20
82.285123
11
96.692450
21
83.175620
0
LINE
8
Layer 1
10
96.692450
20
83.175620
11
98.368464
21
83.923729
0
LINE
8
Layer 1
10
98.368464
20
83.923729
11
100.130167
21
84.520745
0
LINE
8
Layer 1
10
100.130167
20
84.520745
11
101.967946
21
84.957963
0
LINE
8
Layer 1
10
101.967946
20
84.957963
11
103.872189
21
85.226677
0
LINE
8
Layer 1
10
103.872189
20
85.226677
11
105.833280
21
85.318183
0
LINE
8
Layer 1
10
105.833280
20
85.318183
11
107.908367
21
85.226677
0
LINE
8
Layer 1
10
107.908367
20
85.226677
11
109.912941
21
84.957963
0
LINE
8
Layer 1
10
109.912941
20
84.957963
11
111.838259
21
84.520745
0
LINE
8
Layer 1
10
111.838259
20
84.520745
11
113.675579
21
83.923729
0
LINE
8
Layer 1
10
113.675579
20
83.923729
11
115.416157
21
83.175620
0
LINE
8
Layer 1
10
115.416157
20
83.175620
11
117.051249
21
82.285123
0
LINE
8
Layer 1
10
117.051249
20
82.285123
11
118.572114
21
81.260944
0
LINE
8
Layer 1
10
118.572114
20
81.260944
11
119.970008
21
80.111788
0
LINE
8
Layer 1
10
119.970008
20
80.111788
11
121.236187
21
78.846360
0
LINE
8
Layer 1
10
121.236187
20
78.846360
11
122.361908
21
77.473365
0
LINE
8
Layer 1
10
122.361908
20
77.473365
11
123.338430
21
76.001509
0
LINE
8
Layer 1
10
123.338430
20
76.001509
11
124.157007
21
74.439497
0
LINE
8
Layer 1
10
124.157007
20
74.439497
11
124.808898
21
72.796033
0
LINE
8
Layer 1
10
124.808898
20
72.796033
11
125.285359
21
71.079824
0
LINE
8
Layer 1
10
125.285359
20
71.079824
11
125.577648
21
69.299575
0
LINE
8
Layer 1
10
125.577648
20
69.299575
11
125.677020
21
67.463990
0
LINE
8
Layer 1
10
125.677020
20
67.463990
11
125.677020
21
67.463990
0
LINE
8
Layer 1
10
113.765610
20
92.604560
11
112.625556
21
94.375416
0
LINE
8
Layer 1
10
112.625556
20
94.375416
11
111.683263
21
96.208837
0
LINE
8
Layer 1
10
111.683263
20
96.208837
11
110.934832
21
98.089266
0
LINE
8
Layer 1
10
110.934832
20
98.089266
11
110.376364
21
100.001148
0
LINE
8
Layer 1
10
110.376364
20
100.001148
11
110.003962
21
101.928926
0
LINE
8
Layer 1
10
110.003962
20
101.928926
11
109.813727
21
103.857045
0
LINE
8
Layer 1
10
109.813727
20
103.857045
11
109.801760
21
105.769949
0
LINE
8
Layer 1
10
109.801760
20
105.769949
11
109.964164
21
107.652081
0
LINE
8
Layer 1
10
109.964164
20
107.652081
11
110.297039
21
109.487887
0
LINE
8
Layer 1
10
110.297039
20
109.487887
11
110.796487
21
111.261809
0
LINE
8
Layer 1
10
110.796487
20
111.261809
11
111.458610
21
112.958293
0
LINE
8
Layer 1
10
111.458610
20
112.958293
11
112.279509
21
114.561782
0
LINE
8
Layer 1
10
112.279509
20
114.561782
11
113.255286
21
116.056720
0
LINE
8
Layer 1
10
113.255286
20
116.056720
11
114.382042
21
117.427551
0
LINE
8
Layer 1
10
114.382042
20
117.427551
11
115.655880
21
118.658720
0
LINE
8
Layer 1
10
115.655880
20
118.658720
11
117.072900
21
119.734670
0
LINE
8
Layer 1
10
117.072900
20
119.734670
11
118.604419
21
120.622934
0
LINE
8
Layer 1
10
118.604419
20
120.622934
11
120.214665
21
121.313021
0
LINE
8
Layer 1
10
120.214665
20
121.313021
11
121.889101
21
121.807807
0
LINE
8
Layer 1
10
121.889101
20
121.807807
11
123.613196
21
122.110170
0
LINE
8
Layer 1
10
123.613196
20
122.110170
11
125.372414
21
122.222985
0
LINE
8
Layer 1
10
125.372414
20
122.222985
11
127.152222
21
122.149129
0
LINE
8
Layer 1
10
127.152222
20
122.149129
11
128.938086
21
121.891479
0
LINE
8
Layer 1
10
128.938086
20
121.891479
11
130.715472
21
121.452910
0
LINE
8
Layer 1
10
130.715472
20
121.452910
11
132.469846
21
120.836301
0
LINE
8
Layer 1
10
132.469846
20
120.836301
11
134.186673
21
120.044527
0
LINE
8
Layer 1
10
134.186673
20
120.044527
11
135.851421
21
119.080464
0
LINE
8
Layer 1
10
135.851421
20
119.080464
11
137.449554
21
117.946989
0
LINE
8
Layer 1
10
137.449554
20
117.946989
11
138.966539
21
116.646979
0
LINE
8
Layer 1
10
138.966539
20
116.646979
11
140.387842
21
115.183311
0
LINE
8
Layer 1
10
140.387842
20
115.183311
11
141.698929
21
113.558860
0
LINE
8
Layer 1
10
141.698929
20
113.558860
11
142.885267
21
111.776503
0
LINE
8
Layer 1
10
142.885267
20
111.776503
11
143.914612
21
109.895229
0
LINE
8
Layer 1
10
143.914612
20
109.895229
11
144.774735
21
107.980458
0
LINE
8
Layer 1
10
144.774735
20
107.980458
11
145.466581
21
106.044718
0
LINE
8
Layer 1
10
145.466581
20
106.044718
11
145.991097
21
104.100538
0
LINE
8
Layer 1
10
145.991097
20
104.100538
11
146.349230
21
102.160447
0
LINE
8
Layer 1
10
146.349230
20
102.160447
11
146.541925
21
100.236970
0
LINE
8
Layer 1
10
146.541925
20
100.236970
11
146.570128
21
98.342638
0
LINE
8
Layer 1
10
146.570128
20
98.342638
11
146.434787
21
96.489977
0
LINE
8
Layer 1
10
146.434787
20
96.489977
11
146.136846
21
94.691515
0
LINE
8
Layer 1
10
146.136846
20
94.691515
11
145.677253
21
92.959782
0
LINE
8
Layer 1
10
145.677253
20
92.959782
11
145.056953
21
91.307304
0
LINE
8
Layer 1
10
145.056953
20
91.307304
11
144.276894
21
89.746610
0
LINE
8
Layer 1
10
144.276894
20
89.746610
11
143.338020
21
88.290227
0
LINE
8
Layer 1
10
143.338020
20
88.290227
11
142.241278
21
86.950685
0
LINE
8
Layer 1
10
142.241278
20
86.950685
11
140.987615
21
85.740509
0
LINE
8
Layer 1
10
140.987615
20
85.740509
11
139.577977
21
84.672230
0
LINE
8
Layer 1
10
139.577977
20
84.672230
11
138.042199
21
83.897506
0
LINE
8
Layer 1
10
138.042199
20
83.897506
11
136.428794
21
83.305782
0
LINE
8
Layer 1
10
136.428794
20
83.305782
11
134.752181
21
82.894143
0
LINE
8
Layer 1
10
134.752181
20
82.894143
11
133.026781
21
82.659675
0
LINE
8
Layer 1
10
133.026781
20
82.659675
11
131.267014
21
82.599464
0
LINE
8
Layer 1
10
131.267014
20
82.599464
11
129.487300
21
82.710595
0
LINE
8
Layer 1
10
129.487300
20
82.710595
11
127.702061
21
82.990153
0
LINE
8
Layer 1
10
127.702061
20
82.990153
11
125.925716
21
83.435225
0
LINE
8
Layer 1
10
125.925716
20
83.435225
11
124.172686
21
84.042896
0
LINE
8
Layer 1
10
124.172686
20
84.042896
11
122.457391
21
84.810252
0
LINE
8
Layer 1
10
122.457391
20
84.810252
11
120.794252
21
85.734378
0
LINE
8
Layer 1
10
120.794252
20
85.734378
11
119.197689
21
86.812360
0
LINE
8
Layer 1
10
119.197689
20
86.812360
11
117.682123
21
88.041283
0
LINE
8
Layer 1
10
117.682123
20
88.041283
11
116.261975
21
89.418234
0
LINE
8
Layer 1
10
116.261975
20
89.418234
11
114.951663
21
90.940298
0
LINE
8
Layer 1
10
114.951663
20
90.940298
11
113.765610
21
92.604560
0
LINE
8
Layer 1
10
113.765610
20
92.604560
11
113.765610
21
92.604560
0
LINE
8
Layer 1
10
153.453090
20
52.917080
11
151.811355
21
50.821177
0
LINE
8
Layer 1
10
151.811355
20
50.821177
11
150.122385
21
48.991844
0
LINE
8
Layer 1
10
150.122385
20
48.991844
11
148.400713
21
47.416477
0
LINE
8
Layer 1
10
148.400713
20
47.416477
11
146.660873
21
46.082473
0
LINE
8
Layer 1
10
146.660873
20
46.082473
11
144.917400
21
44.977227
0
LINE
8
Layer 1
10
144.917400
20
44.977227
11
143.184827
21
44.088137
0
LINE
8
Layer 1
10
143.184827
20
44.088137
11
141.477689
21
43.402598
0
LINE
8
Layer 1
10
141.477689
20
43.402598
11
139.810520
21
42.908008
0
LINE
8
Layer 1
10
139.810520
20
42.908008
11
138.197852
21
42.591761
0
LINE
8
Layer 1
10
138.197852
20
42.591761
11
136.654222
21
42.441255
0
LINE
8
Layer 1
10
136.654222
20
42.441255
11
133.832205
21
42.587049
0
LINE
8
Layer 1
10
133.832205
20
42.587049
11
131.460743
21
43.244560
0
LINE
8
Layer 1
10
131.460743
20
43.244560
11
130.480305
21
43.733701
0
LINE
8
Layer 1
10
130.480305
20
43.733701
11
129.656107
21
44.312960
0
LINE
8
Layer 1
10
129.656107
20
44.312960
11
128.876192
21
45.163721
0
LINE
8
Layer 1
10
128.876192
20
45.163721
11
128.275983
21
46.208988
0
LINE
8
Layer 1
10
128.275983
20
46.208988
11
127.848669
21
47.426468
0
LINE
8
Layer 1
10
127.848669
20
47.426468
11
127.587435
21
48.793868
0
LINE
8
Layer 1
10
127.587435
20
48.793868
11
127.485470
21
50.288894
0
LINE
8
Layer 1
10
127.485470
20
50.288894
11
127.535961
21
51.889254
0
LINE
8
Layer 1
10
127.535961
20
51.889254
11
128.067057
21
55.316802
0
LINE
8
Layer 1
10
128.067057
20
55.316802
11
129.126222
21
58.898168
0
LINE
8
Layer 1
10
129.126222
20
58.898168
11
130.658952
21
62.455008
0
LINE
8
Layer 1
10
130.658952
20
62.455008
11
132.610745
21
65.808978
0
LINE
8
Layer 1
10
132.610745
20
65.808978
11
134.927100
21
68.781733
0
LINE
8
Layer 1
10
134.927100
20
68.781733
11
137.461414
21
71.627317
0
LINE
8
Layer 1
10
137.461414
20
71.627317
11
140.066884
21
74.144372
0
LINE
8
Layer 1
10
140.066884
20
74.144372
11
142.688704
21
76.256292
0
LINE
8
Layer 1
10
142.688704
20
76.256292
11
145.272070
21
77.886470
0
LINE
8
Layer 1
10
145.272070
20
77.886470
11
147.762176
21
78.958302
0
LINE
8
Layer 1
10
147.762176
20
78.958302
11
148.955129
21
79.260898
0
LINE
8
Layer 1
10
148.955129
20
79.260898
11
150.104216
21
79.395180
0
LINE
8
Layer 1
10
150.104216
20
79.395180
11
151.202585
21
79.351572
0
LINE
8
Layer 1
10
151.202585
20
79.351572
11
152.243386
21
79.120498
0
LINE
8
Layer 1
10
152.243386
20
79.120498
11
153.219768
21
78.692383
0
LINE
8
Layer 1
10
153.219768
20
78.692383
11
154.124880
21
78.057650
0
LINE
8
Layer 1
10
154.124880
20
78.057650
11
155.290375
21
75.974848
0
LINE
8
Layer 1
10
155.290375
20
75.974848
11
156.254514
21
73.293731
0
LINE
8
Layer 1
10
156.254514
20
73.293731
11
156.939479
21
70.162061
0
LINE
8
Layer 1
10
156.939479
20
70.162061
11
157.267454
21
66.727599
0
LINE
8
Layer 1
10
157.267454
20
66.727599
11
157.160620
21
63.138108
0
LINE
8
Layer 1
10
157.160620
20
63.138108
11
156.541159
21
59.541350
0
LINE
8
Layer 1
10
156.541159
20
59.541350
11
156.014876
21
57.786421
0
LINE
8
Layer 1
10
156.014876
20
57.786421
11
155.331255
21
56.085086
0
LINE
8
Layer 1
10
155.331255
20
56.085086
11
154.480569
21
54.455816
0
LINE
8
Layer 1
10
154.480569
20
54.455816
11
153.453090
21
52.917080
0
LINE
8
Layer 1
10
153.453090
20
52.917080
11
153.453090
21
52.917080
0
LINE
8
Layer 1
10
159.421717
20
77.385860
11
158.742978
21
77.195399
0
LINE
8
Layer 1
10
158.742978
20
77.195399
11
158.074647
21
77.234117
0
LINE
8
Layer 1
10
158.074647
20
77.234117
11
157.419261
21
77.486995
0
LINE
8
Layer 1
10
157.419261
20
77.486995
11
156.779356
21
77.939009
0
LINE
8
Layer 1
10
156.779356
20
77.939009
11
155.556128
21
79.380366
0
LINE
8
Layer 1
10
155.556128
20
79.380366
11
154.425253
21
81.438017
0
LINE
8
Layer 1
10
154.425253
20
81.438017
11
153.407015
21
83.991791
0
LINE
8
Layer 1
10
153.407015
20
83.991791
11
152.521704
21
86.921519
0
LINE
8
Layer 1
10
152.521704
20
86.921519
11
151.789604
21
90.107030
0
LINE
8
Layer 1
10
151.789604
20
90.107030
11
151.231005
21
93.428154
0
LINE
8
Layer 1
10
151.231005
20
93.428154
11
150.866191
21
96.764720
0
LINE
8
Layer 1
10
150.866191
20
96.764720
11
150.715452
21
99.996558
0
LINE
8
Layer 1
10
150.715452
20
99.996558
11
150.799072
21
103.003498
0
LINE
8
Layer 1
10
150.799072
20
103.003498
11
151.137341
21
105.665369
0
LINE
8
Layer 1
10
151.137341
20
105.665369
11
151.750544
21
107.862001
0
LINE
8
Layer 1
10
151.750544
20
107.862001
11
152.658968
21
109.473224
0
LINE
8
Layer 1
10
152.658968
20
109.473224
11
153.230228
21
110.021754
0
LINE
8
Layer 1
10
153.230228
20
110.021754
11
153.882901
21
110.378867
0
LINE
8
Layer 1
10
153.882901
20
110.378867
11
154.619523
21
110.529543
0
LINE
8
Layer 1
10
154.619523
20
110.529543
11
155.442630
21
110.458760
0
LINE
8
Layer 1
10
155.442630
20
110.458760
11
157.971721
21
108.852798
0
LINE
8
Layer 1
10
157.971721
20
108.852798
11
160.115510
21
107.031514
0
LINE
8
Layer 1
10
160.115510
20
107.031514
11
161.891407
21
105.027873
0
LINE
8
Layer 1
10
161.891407
20
105.027873
11
163.316823
21
102.874843
0
LINE
8
Layer 1
10
163.316823
20
102.874843
11
164.409168
21
100.605390
0
LINE
8
Layer 1
10
164.409168
20
100.605390
11
165.185854
21
98.252479
0
LINE
8
Layer 1
10
165.185854
20
98.252479
11
165.664289
21
95.849079
0
LINE
8
Layer 1
10
165.664289
20
95.849079
11
165.861886
21
93.428154
0
LINE
8
Layer 1
10
165.861886
20
93.428154
11
165.796054
21
91.022671
0
LINE
8
Layer 1
10
165.796054
20
91.022671
11
165.484204
21
88.665598
0
LINE
8
Layer 1
10
165.484204
20
88.665598
11
164.943747
21
86.389899
0
LINE
8
Layer 1
10
164.943747
20
86.389899
11
164.192092
21
84.228543
0
LINE
8
Layer 1
10
164.192092
20
84.228543
11
163.246652
21
82.214494
0
LINE
8
Layer 1
10
163.246652
20
82.214494
11
162.124835
21
80.380720
0
LINE
8
Layer 1
10
162.124835
20
80.380720
11
160.844053
21
78.760186
0
LINE
8
Layer 1
10
160.844053
20
78.760186
11
159.421717
21
77.385860
0
LINE
8
Layer 1
10
159.421717
20
77.385860
11
159.421717
21
77.385860
 0 
ENDSEC
 0 
EOF